<?xml version="1.0" encoding="utf-8"?>
<!-- Generator: Adobe Illustrator 19.1.0, SVG Export Plug-In . SVG Version: 6.00 Build 0)  -->
<svg version="1.1" id="Layer_1" xmlns="http://www.w3.org/2000/svg" xmlns:xlink="http://www.w3.org/1999/xlink" x="0px" y="0px"
	 viewBox="0 0 420 1600" enable-background="new 0 0 420 1600" xml:space="preserve">
<text transform="matrix(1 0 0 1 70.507 61.211)" font-family="'HelveticaNeue-Light'" font-size="19px">Missouri</text>
<rect x="150.2" y="47.2" fill="#A88BAC" width="51" height="16"/>
<rect x="203.2" y="47.2" fill="#9AB1A2" width="51" height="16"/>
<rect x="256.2" y="47.2" fill="#CFBD71" width="51" height="16"/>
<rect x="309.2" y="47.2" fill="#C7A085" width="51" height="16"/>
<rect x="362.5" y="47.2" fill="#F0F0F0" width="51" height="16"/>
<text transform="matrix(1 0 0 1 99.4618 90.9953)" font-family="'HelveticaNeue-Light'" font-size="19px">Utah</text>
<rect x="150.2" y="77" fill="#A88BAC" width="51" height="16"/>
<rect x="203.2" y="77" fill="#9AB1A2" width="51" height="16"/>
<rect x="256.2" y="77" fill="#CFBD71" width="51" height="16"/>
<rect x="309.2" y="77" fill="#C7A085" width="51" height="16"/>
<rect x="362.5" y="77" fill="#F0F0F0" width="51" height="16"/>
<text transform="matrix(1 0 0 1 79.3983 120.7795)" font-family="'HelveticaNeue-Light'" font-size="19px">Indiana</text>
<rect x="150.2" y="106.8" fill="#A88BAC" width="51" height="16"/>
<rect x="203.2" y="106.8" fill="#F0F0F0" width="51" height="16"/>
<rect x="256.2" y="106.8" fill="#CFBD71" width="51" height="16"/>
<rect x="309.2" y="106.8" fill="#C7A085" width="51" height="16"/>
<rect x="362.5" y="106.8" fill="#94B5C7" width="51" height="16"/>
<text transform="matrix(1 0 0 1 59.6762 150.5637)" font-family="'HelveticaNeue-Light'" font-size="19px">Nebraska</text>
<rect x="150.2" y="136.6" fill="#A88BAC" width="51" height="16"/>
<rect x="203.2" y="136.6" fill="#F0F0F0" width="51" height="16"/>
<rect x="256.2" y="136.6" fill="#CFBD71" width="51" height="16"/>
<rect x="309.2" y="136.6" fill="#C7A085" width="51" height="16"/>
<rect x="362.5" y="136.6" fill="#94B5C7" width="51" height="16"/>
<text transform="matrix(1 0 0 1 28.7066 210.1319)" font-family="'HelveticaNeue-Light'" font-size="19px">North Dakota</text>
<rect x="150.2" y="196.1" fill="#F0F0F0" width="51" height="16"/>
<rect x="203.2" y="196.1" fill="#9AB1A2" width="51" height="16"/>
<rect x="256.2" y="196.1" fill="#CFBD71" width="51" height="16"/>
<rect x="309.2" y="196.1" fill="#C7A085" width="51" height="16"/>
<rect x="362.5" y="196.1" fill="#94B5C7" width="51" height="16"/>
<text transform="matrix(1 0 0 1 54.7553 180.348)" font-family="'HelveticaNeue-Light'" font-size="19px">Oklahoma</text>
<rect x="150.2" y="166.3" fill="#A88BAC" width="51" height="16"/>
<rect x="203.2" y="166.3" fill="#F0F0F0" width="51" height="16"/>
<rect x="256.2" y="166.3" fill="#CFBD71" width="51" height="16"/>
<rect x="309.2" y="166.3" fill="#C7A085" width="51" height="16"/>
<rect x="362.5" y="166.3" fill="#94B5C7" width="51" height="16"/>
<text transform="matrix(1 0 0 1 49.4736 239.9161)" font-family="'HelveticaNeue-Light'" font-size="19px">Tennessee</text>
<rect x="150.2" y="225.9" fill="#A88BAC" width="51" height="16"/>
<rect x="203.2" y="225.9" fill="#9AB1A2" width="51" height="16"/>
<rect x="256.2" y="225.9" fill="#CFBD71" width="51" height="16"/>
<rect x="309.2" y="225.9" fill="#F0F0F0" width="51" height="16"/>
<rect x="362.5" y="225.9" fill="#F0F0F0" width="51" height="16"/>
<text transform="matrix(1 0 0 1 61.8048 269.7003)" font-family="'HelveticaNeue-Light'" font-size="19px">Kentucky</text>
<rect x="150.2" y="255.7" fill="#A88BAC" width="51" height="16"/>
<rect x="203.2" y="255.7" fill="#F0F0F0" width="51" height="16"/>
<rect x="256.2" y="255.7" fill="#CFBD71" width="51" height="16"/>
<rect x="309.2" y="255.7" fill="#C7A085" width="51" height="16"/>
<rect x="362.5" y="255.7" fill="#F0F0F0" width="51" height="16"/>
<text transform="matrix(1 0 0 1 64.8444 299.4846)" font-family="'HelveticaNeue-Light'" font-size="19px">Michigan</text>
<rect x="150.2" y="285.5" fill="#A88BAC" width="51" height="16"/>
<rect x="203.2" y="285.5" fill="#F0F0F0" width="51" height="16"/>
<rect x="256.2" y="285.5" fill="#CFBD71" width="51" height="16"/>
<rect x="309.2" y="285.5" fill="#C7A085" width="51" height="16"/>
<rect x="362.5" y="285.5" fill="#F0F0F0" width="51" height="16"/>
<text transform="matrix(1 0 0 1 66.3644 329.2689)" font-family="'HelveticaNeue-Light'" font-size="19px">Alabama</text>
<rect x="150.2" y="315.3" fill="#A88BAC" width="51" height="16"/>
<rect x="203.2" y="315.3" fill="#F0F0F0" width="51" height="16"/>
<rect x="256.2" y="315.3" fill="#CFBD71" width="51" height="16"/>
<rect x="309.2" y="315.3" fill="#F0F0F0" width="51" height="16"/>
<rect x="362.5" y="315.3" fill="#94B5C7" width="51" height="16"/>
<text transform="matrix(1 0 0 1 62.5079 359.0531)" font-family="'HelveticaNeue-Light'" font-size="19px">Arkansas</text>
<rect x="150.2" y="345.1" fill="#A88BAC" width="51" height="16"/>
<rect x="203.2" y="345.1" fill="#F0F0F0" width="51" height="16"/>
<rect x="256.2" y="345.1" fill="#CFBD71" width="51" height="16"/>
<rect x="309.2" y="345.1" fill="#F0F0F0" width="51" height="16"/>
<rect x="362.5" y="345.1" fill="#94B5C7" width="51" height="16"/>
<text transform="matrix(1 0 0 1 61.1019 388.8374)" font-family="'HelveticaNeue-Light'" font-size="19px">Louisiana</text>
<rect x="150.2" y="374.8" fill="#A88BAC" width="51" height="16"/>
<rect x="203.2" y="374.8" fill="#F0F0F0" width="51" height="16"/>
<rect x="256.2" y="374.8" fill="#CFBD71" width="51" height="16"/>
<rect x="309.2" y="374.8" fill="#F0F0F0" width="51" height="16"/>
<rect x="362.5" y="374.8" fill="#94B5C7" width="51" height="16"/>
<text transform="matrix(1 0 0 1 50.1395 418.6216)" font-family="'HelveticaNeue-Light'" font-size="19px">Mississippi</text>
<rect x="150.2" y="404.6" fill="#A88BAC" width="51" height="16"/>
<rect x="203.2" y="404.6" fill="#F0F0F0" width="51" height="16"/>
<rect x="256.2" y="404.6" fill="#CFBD71" width="51" height="16"/>
<rect x="309.2" y="404.6" fill="#F0F0F0" width="51" height="16"/>
<rect x="362.5" y="404.6" fill="#94B5C7" width="51" height="16"/>
<text transform="matrix(1 0 0 1 17.4407 448.4058)" font-family="'HelveticaNeue-Light'" font-size="19px">South Carolina</text>
<rect x="150.2" y="434.4" fill="#A88BAC" width="51" height="16"/>
<rect x="203.2" y="434.4" fill="#F0F0F0" width="51" height="16"/>
<rect x="256.2" y="434.4" fill="#CFBD71" width="51" height="16"/>
<rect x="309.2" y="434.4" fill="#F0F0F0" width="51" height="16"/>
<rect x="362.5" y="434.4" fill="#94B5C7" width="51" height="16"/>
<text transform="matrix(1 0 0 1 77.6503 507.974)" font-family="'HelveticaNeue-Light'" font-size="19px">Kansas</text>
<rect x="150.2" y="494" fill="#F0F0F0" width="51" height="16"/>
<rect x="203.2" y="494" fill="#F0F0F0" width="51" height="16"/>
<rect x="256.2" y="494" fill="#CFBD71" width="51" height="16"/>
<rect x="309.2" y="494" fill="#C7A085" width="51" height="16"/>
<rect x="362.5" y="494" fill="#94B5C7" width="51" height="16"/>
<text transform="matrix(1 0 0 1 54.7938 478.1896)" font-family="'HelveticaNeue-Light'" font-size="19px">Wisconsin</text>
<rect x="150.2" y="464.2" fill="#A88BAC" width="51" height="16"/>
<rect x="203.2" y="464.2" fill="#F0F0F0" width="51" height="16"/>
<rect x="256.2" y="464.2" fill="#CFBD71" width="51" height="16"/>
<rect x="309.2" y="464.2" fill="#F0F0F0" width="51" height="16"/>
<rect x="362.5" y="464.2" fill="#94B5C7" width="51" height="16"/>
<text transform="matrix(1 0 0 1 77.2708 537.7582)" font-family="'HelveticaNeue-Light'" font-size="19px">Arizona</text>
<rect x="150.2" y="523.8" fill="#A88BAC" width="51" height="16"/>
<rect x="203.2" y="523.8" fill="#F0F0F0" width="51" height="16"/>
<rect x="256.2" y="523.8" fill="#CFBD71" width="51" height="16"/>
<rect x="309.2" y="523.8" fill="#F0F0F0" width="51" height="16"/>
<rect x="362.5" y="523.8" fill="#F0F0F0" width="51" height="16"/>
<text transform="matrix(1 0 0 1 20.252 567.5424)" font-family="'HelveticaNeue-Light'" font-size="19px">North Carolina</text>
<rect x="150.2" y="553.5" fill="#A88BAC" width="51" height="16"/>
<rect x="203.2" y="553.5" fill="#F0F0F0" width="51" height="16"/>
<rect x="256.2" y="553.5" fill="#CFBD71" width="51" height="16"/>
<rect x="309.2" y="553.5" fill="#F0F0F0" width="51" height="16"/>
<rect x="362.5" y="553.5" fill="#F0F0F0" width="51" height="16"/>
<text transform="matrix(1 0 0 1 99.8037 597.3267)" font-family="'HelveticaNeue-Light'" font-size="19px">Ohio</text>
<rect x="150.2" y="583.3" fill="#A88BAC" width="51" height="16"/>
<rect x="203.2" y="583.3" fill="#F0F0F0" width="51" height="16"/>
<rect x="256.2" y="583.3" fill="#CFBD71" width="51" height="16"/>
<rect x="309.2" y="583.3" fill="#F0F0F0" width="51" height="16"/>
<rect x="362.5" y="583.3" fill="#F0F0F0" width="51" height="16"/>
<text transform="matrix(1 0 0 1 32.2412 627.1105)" font-family="'HelveticaNeue-Light'" font-size="19px">Pennsylvania</text>
<rect x="150.2" y="613.1" fill="#A88BAC" width="51" height="16"/>
<rect x="203.2" y="613.1" fill="#F0F0F0" width="51" height="16"/>
<rect x="256.2" y="613.1" fill="#CFBD71" width="51" height="16"/>
<rect x="309.2" y="613.1" fill="#F0F0F0" width="51" height="16"/>
<rect x="362.5" y="613.1" fill="#F0F0F0" width="51" height="16"/>
<text transform="matrix(1 0 0 1 25.895 656.8948)" font-family="'HelveticaNeue-Light'" font-size="19px">South Dakota</text>
<rect x="150.2" y="642.9" fill="#A88BAC" width="51" height="16"/>
<rect x="203.2" y="642.9" fill="#F0F0F0" width="51" height="16"/>
<rect x="256.2" y="642.9" fill="#CFBD71" width="51" height="16"/>
<rect x="309.2" y="642.9" fill="#F0F0F0" width="51" height="16"/>
<rect x="362.5" y="642.9" fill="#F0F0F0" width="51" height="16"/>
<text transform="matrix(1 0 0 1 79.7408 686.6793)" font-family="'HelveticaNeue-Light'" font-size="19px">Virginia</text>
<rect x="150.2" y="672.7" fill="#A88BAC" width="51" height="16"/>
<rect x="203.2" y="672.7" fill="#F0F0F0" width="51" height="16"/>
<rect x="256.2" y="672.7" fill="#CFBD71" width="51" height="16"/>
<rect x="309.2" y="672.7" fill="#F0F0F0" width="51" height="16"/>
<rect x="362.5" y="672.7" fill="#F0F0F0" width="51" height="16"/>
<text transform="matrix(1 0 0 1 92.4137 716.4634)" font-family="'HelveticaNeue-Light'" font-size="19px">Idaho</text>
<rect x="150.2" y="702.5" fill="#F0F0F0" width="51" height="16"/>
<rect x="203.2" y="702.5" fill="#F0F0F0" width="51" height="16"/>
<rect x="256.2" y="702.5" fill="#CFBD71" width="51" height="16"/>
<rect x="309.2" y="702.5" fill="#C7A085" width="51" height="16"/>
<rect x="362.5" y="702.5" fill="#F0F0F0" width="51" height="16"/>
<text transform="matrix(1 0 0 1 73.736 746.2476)" font-family="'HelveticaNeue-Light'" font-size="19px">Georgia</text>
<rect x="150.2" y="732.2" fill="#F0F0F0" width="51" height="16"/>
<rect x="203.2" y="732.2" fill="#F0F0F0" width="51" height="16"/>
<rect x="256.2" y="732.2" fill="#CFBD71" width="51" height="16"/>
<rect x="309.2" y="732.2" fill="#F0F0F0" width="51" height="16"/>
<rect x="362.5" y="732.2" fill="#94B5C7" width="51" height="16"/>
<text transform="matrix(1 0 0 1 32.6023 805.8158)" font-family="'HelveticaNeue-Light'" font-size="19px">West Virginia</text>
<rect x="150.2" y="791.8" fill="#F0F0F0" width="51" height="16"/>
<rect x="203.2" y="791.8" fill="#F0F0F0" width="51" height="16"/>
<rect x="256.2" y="791.8" fill="#CFBD71" width="51" height="16"/>
<rect x="309.2" y="791.8" fill="#F0F0F0" width="51" height="16"/>
<rect x="362.5" y="791.8" fill="#94B5C7" width="51" height="16"/>
<text transform="matrix(1 0 0 1 89.6012 776.0316)" font-family="'HelveticaNeue-Light'" font-size="19px">Texas</text>
<rect x="150.2" y="762" fill="#F0F0F0" width="51" height="16"/>
<rect x="203.2" y="762" fill="#F0F0F0" width="51" height="16"/>
<rect x="256.2" y="762" fill="#CFBD71" width="51" height="16"/>
<rect x="309.2" y="762" fill="#F0F0F0" width="51" height="16"/>
<rect x="362.5" y="762" fill="#94B5C7" width="51" height="16"/>
<text transform="matrix(1 0 0 1 39.2711 835.6)" font-family="'HelveticaNeue-Light'" font-size="19px">Connecticut</text>
<rect x="150.2" y="821.6" fill="#A88BAC" width="51" height="16"/>
<rect x="203.2" y="821.6" fill="#F0F0F0" width="51" height="16"/>
<rect x="256.2" y="821.6" fill="#F0F0F0" width="51" height="16"/>
<rect x="309.2" y="821.6" fill="#F0F0F0" width="51" height="16"/>
<rect x="362.5" y="821.6" fill="#F0F0F0" width="51" height="16"/>
<text transform="matrix(1 0 0 1 83.6165 865.3842)" font-family="'HelveticaNeue-Light'" font-size="19px">Florida</text>
<rect x="150.2" y="851.4" fill="#A88BAC" width="51" height="16"/>
<rect x="203.2" y="851.4" fill="#F0F0F0" width="51" height="16"/>
<rect x="256.2" y="851.4" fill="#F0F0F0" width="51" height="16"/>
<rect x="309.2" y="851.4" fill="#F0F0F0" width="51" height="16"/>
<rect x="362.5" y="851.4" fill="#F0F0F0" width="51" height="16"/>
<text transform="matrix(1 0 0 1 30.8358 922.9525)" font-family="'HelveticaNeue-Light'" font-size="19px">Rhode Island</text>
<rect x="150.2" y="909" fill="#A88BAC" width="51" height="16"/>
<rect x="203.2" y="909" fill="#F0F0F0" width="51" height="16"/>
<rect x="256.2" y="909" fill="#F0F0F0" width="51" height="16"/>
<rect x="309.2" y="909" fill="#F0F0F0" width="51" height="16"/>
<rect x="362.5" y="909" fill="#F0F0F0" width="51" height="16"/>
<text transform="matrix(1 0 0 1 53.597 952.7365)" font-family="'HelveticaNeue-Light'" font-size="19px">Minnesota</text>
<rect x="150.2" y="938.7" fill="#F0F0F0" width="51" height="16"/>
<rect x="203.2" y="938.7" fill="#F0F0F0" width="51" height="16"/>
<rect x="256.2" y="938.7" fill="#CFBD71" width="51" height="16"/>
<rect x="309.2" y="938.7" fill="#F0F0F0" width="51" height="16"/>
<rect x="362.5" y="938.7" fill="#F0F0F0" width="51" height="16"/>
<text transform="matrix(1 0 0 1 84.3196 982.5208)" font-family="'HelveticaNeue-Light'" font-size="19px">Alaska</text>
<rect x="150.2" y="968.5" fill="#F0F0F0" width="51" height="16"/>
<rect x="203.2" y="968.5" fill="#F0F0F0" width="51" height="16"/>
<rect x="256.2" y="968.5" fill="#F0F0F0" width="51" height="16"/>
<rect x="309.2" y="968.5" fill="#F0F0F0" width="51" height="16"/>
<rect x="362.5" y="968.5" fill="#F0F0F0" width="51" height="16"/>
<text transform="matrix(1 0 0 1 62.8495 1012.3047)" font-family="'HelveticaNeue-Light'" font-size="19px">California</text>
<rect x="150.2" y="998.3" fill="#F0F0F0" width="51" height="16"/>
<rect x="203.2" y="998.3" fill="#F0F0F0" width="51" height="16"/>
<rect x="256.2" y="998.3" fill="#F0F0F0" width="51" height="16"/>
<rect x="309.2" y="998.3" fill="#F0F0F0" width="51" height="16"/>
<rect x="362.5" y="998.3" fill="#F0F0F0" width="51" height="16"/>
<text transform="matrix(1 0 0 1 62.83 1042.0889)" font-family="'HelveticaNeue-Light'" font-size="19px">Colorado</text>
<rect x="150.2" y="1028.1" fill="#F0F0F0" width="51" height="16"/>
<rect x="203.2" y="1028.1" fill="#F0F0F0" width="51" height="16"/>
<rect x="256.2" y="1028.1" fill="#F0F0F0" width="51" height="16"/>
<rect x="309.2" y="1028.1" fill="#F0F0F0" width="51" height="16"/>
<rect x="362.5" y="1028.1" fill="#F0F0F0" width="51" height="16"/>
<text transform="matrix(1 0 0 1 62.1269 1071.873)" font-family="'HelveticaNeue-Light'" font-size="19px">Delaware</text>
<rect x="150.2" y="1057.9" fill="#F0F0F0" width="51" height="16"/>
<rect x="203.2" y="1057.9" fill="#F0F0F0" width="51" height="16"/>
<rect x="256.2" y="1057.9" fill="#F0F0F0" width="51" height="16"/>
<rect x="309.2" y="1057.9" fill="#F0F0F0" width="51" height="16"/>
<rect x="362.5" y="1057.9" fill="#F0F0F0" width="51" height="16"/>
<text transform="matrix(1 0 0 1 83.9581 1131.4413)" font-family="'HelveticaNeue-Light'" font-size="19px">Hawaii</text>
<rect x="150.2" y="1117.4" fill="#F0F0F0" width="51" height="16"/>
<rect x="203.2" y="1117.4" fill="#F0F0F0" width="51" height="16"/>
<rect x="256.2" y="1117.4" fill="#F0F0F0" width="51" height="16"/>
<rect x="309.2" y="1117.4" fill="#F0F0F0" width="51" height="16"/>
<rect x="362.5" y="1117.4" fill="#F0F0F0" width="51" height="16"/>
<text transform="matrix(1 0 0 1 101.2094 1101.6573)" font-family="'HelveticaNeue-Light'" font-size="19px">D.C.</text>
<rect x="150.2" y="1087.7" fill="#F0F0F0" width="51" height="16"/>
<rect x="203.2" y="1087.7" fill="#F0F0F0" width="51" height="16"/>
<rect x="256.2" y="1087.7" fill="#F0F0F0" width="51" height="16"/>
<rect x="309.2" y="1087.7" fill="#F0F0F0" width="51" height="16"/>
<rect x="362.5" y="1087.7" fill="#F0F0F0" width="51" height="16"/>
<text transform="matrix(1 0 0 1 89.9814 1161.226)" font-family="'HelveticaNeue-Light'" font-size="19px">Illinois</text>
<rect x="150.2" y="1147.2" fill="#F0F0F0" width="51" height="16"/>
<rect x="203.2" y="1147.2" fill="#F0F0F0" width="51" height="16"/>
<rect x="256.2" y="1147.2" fill="#F0F0F0" width="51" height="16"/>
<rect x="309.2" y="1147.2" fill="#F0F0F0" width="51" height="16"/>
<rect x="362.5" y="1147.2" fill="#F0F0F0" width="51" height="16"/>
<text transform="matrix(1 0 0 1 99.4431 1191.0098)" font-family="'HelveticaNeue-Light'" font-size="19px">Iowa</text>
<rect x="150.2" y="1177" fill="#F0F0F0" width="51" height="16"/>
<rect x="203.2" y="1177" fill="#F0F0F0" width="51" height="16"/>
<rect x="256.2" y="1177" fill="#F0F0F0" width="51" height="16"/>
<rect x="309.2" y="1177" fill="#F0F0F0" width="51" height="16"/>
<rect x="362.5" y="1177" fill="#F0F0F0" width="51" height="16"/>
<text transform="matrix(1 0 0 1 89.1262 1220.7941)" font-family="'HelveticaNeue-Light'" font-size="19px">Maine</text>
<rect x="150.2" y="1206.8" fill="#F0F0F0" width="51" height="16"/>
<rect x="203.2" y="1206.8" fill="#F0F0F0" width="51" height="16"/>
<rect x="256.2" y="1206.8" fill="#F0F0F0" width="51" height="16"/>
<rect x="309.2" y="1206.8" fill="#F0F0F0" width="51" height="16"/>
<rect x="362.5" y="1206.8" fill="#F0F0F0" width="51" height="16"/>
<text transform="matrix(1 0 0 1 14.9138 1250.5784)" font-family="'HelveticaNeue-Light'" font-size="19px">Massachusetts</text>
<rect x="150.2" y="1236.6" fill="#F0F0F0" width="51" height="16"/>
<rect x="203.2" y="1236.6" fill="#F0F0F0" width="51" height="16"/>
<rect x="256.2" y="1236.6" fill="#F0F0F0" width="51" height="16"/>
<rect x="309.2" y="1236.6" fill="#F0F0F0" width="51" height="16"/>
<rect x="362.5" y="1236.6" fill="#F0F0F0" width="51" height="16"/>
<text transform="matrix(1 0 0 1 66.2508 1280.3628)" font-family="'HelveticaNeue-Light'" font-size="19px">Montana</text>
<rect x="150.2" y="1266.4" fill="#F0F0F0" width="51" height="16"/>
<rect x="203.2" y="1266.4" fill="#F0F0F0" width="51" height="16"/>
<rect x="256.2" y="1266.4" fill="#F0F0F0" width="51" height="16"/>
<rect x="309.2" y="1266.4" fill="#F0F0F0" width="51" height="16"/>
<rect x="362.5" y="1266.4" fill="#F0F0F0" width="51" height="16"/>
<text transform="matrix(1 0 0 1 75.5029 1310.1467)" font-family="'HelveticaNeue-Light'" font-size="19px">Nevada</text>
<rect x="150.2" y="1296.1" fill="#F0F0F0" width="51" height="16"/>
<rect x="203.2" y="1296.1" fill="#F0F0F0" width="51" height="16"/>
<rect x="256.2" y="1296.1" fill="#F0F0F0" width="51" height="16"/>
<rect x="309.2" y="1296.1" fill="#F0F0F0" width="51" height="16"/>
<rect x="362.5" y="1296.1" fill="#F0F0F0" width="51" height="16"/>
<text transform="matrix(1 0 0 1 6.895 1339.9309)" font-family="'HelveticaNeue-Light'" font-size="19px">New Hampshire</text>
<rect x="150.2" y="1325.9" fill="#F0F0F0" width="51" height="16"/>
<rect x="203.2" y="1325.9" fill="#F0F0F0" width="51" height="16"/>
<rect x="256.2" y="1325.9" fill="#F0F0F0" width="51" height="16"/>
<rect x="309.2" y="1325.9" fill="#F0F0F0" width="51" height="16"/>
<rect x="362.5" y="1325.9" fill="#F0F0F0" width="51" height="16"/>
<text transform="matrix(1 0 0 1 42.4243 1369.7151)" font-family="'HelveticaNeue-Light'" font-size="19px">New Jersey</text>
<rect x="150.2" y="1355.7" fill="#F0F0F0" width="51" height="16"/>
<rect x="203.2" y="1355.7" fill="#F0F0F0" width="51" height="16"/>
<rect x="256.2" y="1355.7" fill="#F0F0F0" width="51" height="16"/>
<rect x="309.2" y="1355.7" fill="#F0F0F0" width="51" height="16"/>
<rect x="362.5" y="1355.7" fill="#F0F0F0" width="51" height="16"/>
<text transform="matrix(1 0 0 1 57.9093 1429.2832)" font-family="'HelveticaNeue-Light'" font-size="19px">New York</text>
<rect x="150.2" y="1415.3" fill="#F0F0F0" width="51" height="16"/>
<rect x="203.2" y="1415.3" fill="#F0F0F0" width="51" height="16"/>
<rect x="256.2" y="1415.3" fill="#F0F0F0" width="51" height="16"/>
<rect x="309.2" y="1415.3" fill="#F0F0F0" width="51" height="16"/>
<rect x="362.5" y="1415.3" fill="#F0F0F0" width="51" height="16"/>
<text transform="matrix(1 0 0 1 37.0283 1399.4993)" font-family="'HelveticaNeue-Light'" font-size="19px">New Mexico</text>
<rect x="150.2" y="1385.5" fill="#F0F0F0" width="51" height="16"/>
<rect x="203.2" y="1385.5" fill="#F0F0F0" width="51" height="16"/>
<rect x="256.2" y="1385.5" fill="#F0F0F0" width="51" height="16"/>
<rect x="309.2" y="1385.5" fill="#F0F0F0" width="51" height="16"/>
<rect x="362.5" y="1385.5" fill="#F0F0F0" width="51" height="16"/>
<text transform="matrix(1 0 0 1 76.9092 1459.0679)" font-family="'HelveticaNeue-Light'" font-size="19px">Oregon</text>
<rect x="150.2" y="1445.1" fill="#F0F0F0" width="51" height="16"/>
<rect x="203.2" y="1445.1" fill="#F0F0F0" width="51" height="16"/>
<rect x="256.2" y="1445.1" fill="#F0F0F0" width="51" height="16"/>
<rect x="309.2" y="1445.1" fill="#F0F0F0" width="51" height="16"/>
<rect x="362.5" y="1445.1" fill="#F0F0F0" width="51" height="16"/>
<text transform="matrix(1 0 0 1 68.8347 1488.8517)" font-family="'HelveticaNeue-Light'" font-size="19px">Vermont</text>
<rect x="150.2" y="1474.9" fill="#F0F0F0" width="51" height="16"/>
<rect x="203.2" y="1474.9" fill="#F0F0F0" width="51" height="16"/>
<rect x="256.2" y="1474.9" fill="#F0F0F0" width="51" height="16"/>
<rect x="309.2" y="1474.9" fill="#F0F0F0" width="51" height="16"/>
<rect x="362.5" y="1474.9" fill="#F0F0F0" width="51" height="16"/>
<text transform="matrix(1 0 0 1 41.0569 1518.636)" font-family="'HelveticaNeue-Light'" font-size="19px">Washington</text>
<rect x="150.2" y="1504.6" fill="#F0F0F0" width="51" height="16"/>
<rect x="203.2" y="1504.6" fill="#F0F0F0" width="51" height="16"/>
<rect x="256.2" y="1504.6" fill="#F0F0F0" width="51" height="16"/>
<rect x="309.2" y="1504.6" fill="#F0F0F0" width="51" height="16"/>
<rect x="362.5" y="1504.6" fill="#F0F0F0" width="51" height="16"/>
<text transform="matrix(1 0 0 1 61.4621 1548.4202)" font-family="'HelveticaNeue-Light'" font-size="19px">Wyoming</text>
<rect x="150.2" y="1534.4" fill="#F0F0F0" width="51" height="16"/>
<rect x="203.2" y="1534.4" fill="#F0F0F0" width="51" height="16"/>
<rect x="256.2" y="1534.4" fill="#F0F0F0" width="51" height="16"/>
<rect x="309.2" y="1534.4" fill="#F0F0F0" width="51" height="16"/>
<rect x="362.5" y="1534.4" fill="#F0F0F0" width="51" height="16"/>
<text transform="matrix(1 0 0 1 63.4382 894.9525)" font-family="'HelveticaNeue-Light'" font-size="19px">Maryland</text>
<rect x="150.2" y="881" fill="#A88BAC" width="51" height="16"/>
<rect x="203.2" y="881" fill="#F0F0F0" width="51" height="16"/>
<rect x="256.2" y="881" fill="#F0F0F0" width="51" height="16"/>
<rect x="309.2" y="881" fill="#F0F0F0" width="51" height="16"/>
<rect x="362.5" y="881" fill="#F0F0F0" width="51" height="16"/>
</svg>
