<?xml version="1.0" encoding="utf-8"?>
<!-- Generator: Adobe Illustrator 19.1.0, SVG Export Plug-In . SVG Version: 6.00 Build 0)  -->
<svg version="1.1" id="states" xmlns="http://www.w3.org/2000/svg" xmlns:xlink="http://www.w3.org/1999/xlink" x="0px" y="0px"
	 viewBox="0 0 140.7 88" enable-background="new 0 0 140.7 88" xml:space="preserve">
<rect x="21.5" y="24.4" fill="#E2E2E2" stroke="#FFFFFF" stroke-miterlimit="10" width="8.9" height="8.9"/>
<rect x="30.4" y="24.4" fill="#C7A085" stroke="#FFFFFF" stroke-miterlimit="10" width="8.9" height="8.9"/>
<rect x="39.3" y="24.4" fill="#E2E2E2" stroke="#FFFFFF" stroke-miterlimit="10" width="8.9" height="8.9"/>
<rect x="48.1" y="24.4" fill="#C7A085" stroke="#FFFFFF" stroke-miterlimit="10" width="8.9" height="8.9"/>
<rect x="57" y="24.4" fill="#E2E2E2" stroke="#FFFFFF" stroke-miterlimit="10" width="8.9" height="8.9"/>
<rect x="65.9" y="24.4" fill="#E2E2E2" stroke="#FFFFFF" stroke-miterlimit="10" width="8.9" height="8.9"/>
<rect x="74.8" y="24.4" fill="#C7A085" stroke="#FFFFFF" stroke-miterlimit="10" width="8.9" height="8.9"/>
<rect x="65.9" y="15.5" fill="#E2E2E2" stroke="#FFFFFF" stroke-miterlimit="10" width="8.9" height="8.9"/>
<rect x="21.5" y="33.3" fill="#E2E2E2" stroke="#FFFFFF" stroke-miterlimit="10" width="8.9" height="8.9"/>
<rect x="30.4" y="33.3" fill="#E2E2E2" stroke="#FFFFFF" stroke-miterlimit="10" width="8.9" height="8.9"/>
<rect x="39.3" y="33.3" fill="#E2E2E2" stroke="#FFFFFF" stroke-miterlimit="10" width="8.9" height="8.9"/>
<rect x="48.1" y="33.3" fill="#E2E2E2" stroke="#FFFFFF" stroke-miterlimit="10" width="8.9" height="8.9"/>
<rect x="57" y="33.3" fill="#E2E2E2" stroke="#FFFFFF" stroke-miterlimit="10" width="8.9" height="8.9"/>
<rect x="65.9" y="33.3" fill="#C7A085" stroke="#FFFFFF" stroke-miterlimit="10" width="8.9" height="8.9"/>
<rect x="74.8" y="33.3" fill="#E2E2E2" stroke="#FFFFFF" stroke-miterlimit="10" width="8.9" height="8.9"/>
<rect x="83.7" y="33.3" fill="#E2E2E2" stroke="#FFFFFF" stroke-miterlimit="10" width="8.9" height="8.9"/>
<rect x="92.5" y="24.4" fill="#E2E2E2" stroke="#FFFFFF" stroke-miterlimit="10" width="8.9" height="8.9"/>
<rect x="92.5" y="33.3" fill="#E2E2E2" stroke="#FFFFFF" stroke-miterlimit="10" width="8.9" height="8.9"/>
<rect x="101.4" y="24.4" fill="#E2E2E2" stroke="#FFFFFF" stroke-miterlimit="10" width="8.9" height="8.9"/>
<rect x="101.4" y="33.3" fill="#E2E2E2" stroke="#FFFFFF" stroke-miterlimit="10" width="8.9" height="8.9"/>
<rect x="101.4" y="15.5" fill="#E2E2E2" stroke="#FFFFFF" stroke-miterlimit="10" width="8.9" height="8.9"/>
<rect x="110.3" y="15.5" fill="#E2E2E2" stroke="#FFFFFF" stroke-miterlimit="10" width="8.9" height="8.9"/>
<rect x="110.3" y="33.3" fill="#E2E2E2" stroke="#FFFFFF" stroke-miterlimit="10" width="8.9" height="8.9"/>
<rect x="110.3" y="6.6" fill="#E2E2E2" stroke="#FFFFFF" stroke-miterlimit="10" width="8.9" height="8.9"/>
<rect x="21.5" y="42.1" fill="#E2E2E2" stroke="#FFFFFF" stroke-miterlimit="10" width="8.9" height="8.9"/>
<rect x="30.4" y="42.1" fill="#C7A085" stroke="#FFFFFF" stroke-miterlimit="10" width="8.9" height="8.9"/>
<rect x="39.3" y="42.1" fill="#E2E2E2" stroke="#FFFFFF" stroke-miterlimit="10" width="8.9" height="8.9"/>
<rect x="48.1" y="42.1" fill="#C7A085" stroke="#FFFFFF" stroke-miterlimit="10" width="8.9" height="8.9"/>
<rect x="57" y="42.1" fill="#C7A085" stroke="#FFFFFF" stroke-miterlimit="10" width="8.9" height="8.9"/>
<rect x="65.9" y="42.1" fill="#C7A085" stroke="#FFFFFF" stroke-miterlimit="10" width="8.9" height="8.9"/>
<rect x="74.8" y="42.1" fill="#E2E2E2" stroke="#FFFFFF" stroke-miterlimit="10" width="8.9" height="8.9"/>
<rect x="83.7" y="42.1" fill="#E2E2E2" stroke="#FFFFFF" stroke-miterlimit="10" width="8.9" height="8.9"/>
<rect x="92.5" y="42.1" fill="#E2E2E2" stroke="#FFFFFF" stroke-miterlimit="10" width="8.9" height="8.9"/>
<rect x="101.4" y="42.1" fill="#E2E2E2" stroke="#FFFFFF" stroke-miterlimit="10" width="8.9" height="8.9"/>
<rect x="30.4" y="51" fill="#E2E2E2" stroke="#FFFFFF" stroke-miterlimit="10" width="8.9" height="8.9"/>
<rect x="39.3" y="51" fill="#E2E2E2" stroke="#FFFFFF" stroke-miterlimit="10" width="8.9" height="8.9"/>
<rect x="48.1" y="51" fill="#C7A085" stroke="#FFFFFF" stroke-miterlimit="10" width="8.9" height="8.9"/>
<rect x="57" y="51" fill="#E2E2E2" stroke="#FFFFFF" stroke-miterlimit="10" width="8.9" height="8.9"/>
<rect x="65.9" y="51" fill="#E2E2E2" stroke="#FFFFFF" stroke-miterlimit="10" width="8.9" height="8.9"/>
<rect x="74.8" y="51" fill="#E2E2E2" stroke="#FFFFFF" stroke-miterlimit="10" width="8.9" height="8.9"/>
<rect x="83.7" y="51" fill="#E2E2E2" stroke="#FFFFFF" stroke-miterlimit="10" width="8.9" height="8.9"/>
<rect x="92.5" y="51" fill="#E2E2E2" stroke="#FFFFFF" stroke-miterlimit="10" width="8.9" height="8.9"/>
<rect x="48.1" y="59.8" fill="#C7A085" stroke="#FFFFFF" stroke-miterlimit="10" width="8.9" height="8.9"/>
<rect x="57" y="59.8" fill="#E2E2E2" stroke="#FFFFFF" stroke-miterlimit="10" width="8.9" height="8.9"/>
<rect x="65.9" y="59.8" fill="#E2E2E2" stroke="#FFFFFF" stroke-miterlimit="10" width="8.9" height="8.9"/>
<rect x="74.8" y="59.8" fill="#E2E2E2" stroke="#FFFFFF" stroke-miterlimit="10" width="8.9" height="8.9"/>
<rect x="83.7" y="59.8" fill="#E2E2E2" stroke="#FFFFFF" stroke-miterlimit="10" width="8.9" height="8.9"/>
<rect x="48.1" y="68.7" fill="#E2E2E2" stroke="#FFFFFF" stroke-miterlimit="10" width="8.9" height="8.9"/>
<rect x="92.5" y="68.7" fill="#E2E2E2" stroke="#FFFFFF" stroke-miterlimit="10" width="8.9" height="8.9"/>
<rect x="12.6" y="68.7" fill="#E2E2E2" stroke="#FFFFFF" stroke-miterlimit="10" width="8.9" height="8.9"/>
<rect x="21.5" y="68.7" fill="#E2E2E2" stroke="#FFFFFF" stroke-miterlimit="10" width="8.9" height="8.9"/>
</svg>
