<?xml version="1.0" encoding="utf-8"?>
<!-- Generator: Adobe Illustrator 19.1.0, SVG Export Plug-In . SVG Version: 6.00 Build 0)  -->
<svg version="1.1" id="states" xmlns="http://www.w3.org/2000/svg" xmlns:xlink="http://www.w3.org/1999/xlink" x="0px" y="0px"
	 viewBox="0 0 140.7 88" enable-background="new 0 0 140.7 88" xml:space="preserve">
<rect x="25.9" y="23.3" fill="#E2E2E2" stroke="#FFFFFF" stroke-miterlimit="10" width="8.9" height="8.9"/>
<rect x="34.8" y="23.3" fill="#E2E2E2" stroke="#FFFFFF" stroke-miterlimit="10" width="8.9" height="8.9"/>
<rect x="43.7" y="23.3" fill="#E2E2E2" stroke="#FFFFFF" stroke-miterlimit="10" width="8.9" height="8.9"/>
<rect x="52.6" y="23.3" fill="#E2E2E2" stroke="#FFFFFF" stroke-miterlimit="10" width="8.9" height="8.9"/>
<rect x="61.5" y="23.3" fill="#E2E2E2" stroke="#FFFFFF" stroke-miterlimit="10" width="8.9" height="8.9"/>
<rect x="70.3" y="23.3" fill="#E2E2E2" stroke="#FFFFFF" stroke-miterlimit="10" width="8.9" height="8.9"/>
<rect x="79.2" y="23.3" fill="#A88BAC" stroke="#FFFFFF" stroke-miterlimit="10" width="8.9" height="8.9"/>
<rect x="70.3" y="14.4" fill="#A88BAC" stroke="#FFFFFF" stroke-miterlimit="10" width="8.9" height="8.9"/>
<rect x="25.9" y="32.1" fill="#E2E2E2" stroke="#FFFFFF" stroke-miterlimit="10" width="8.9" height="8.9"/>
<rect x="34.8" y="32.1" fill="#E2E2E2" stroke="#FFFFFF" stroke-miterlimit="10" width="8.9" height="8.9"/>
<rect x="43.7" y="32.1" fill="#E2E2E2" stroke="#FFFFFF" stroke-miterlimit="10" width="8.9" height="8.9"/>
<rect x="52.6" y="32.1" fill="#A88BAC" stroke="#FFFFFF" stroke-miterlimit="10" width="8.9" height="8.9"/>
<rect x="61.5" y="32.1" fill="#E2E2E2" stroke="#FFFFFF" stroke-miterlimit="10" width="8.9" height="8.9"/>
<rect x="70.3" y="32.1" fill="#A88BAC" stroke="#FFFFFF" stroke-miterlimit="10" width="8.9" height="8.9"/>
<rect x="79.2" y="32.1" fill="#A88BAC" stroke="#FFFFFF" stroke-miterlimit="10" width="8.9" height="8.9"/>
<rect x="88.1" y="32.1" fill="#A88BAC" stroke="#FFFFFF" stroke-miterlimit="10" width="8.9" height="8.9"/>
<rect x="97" y="23.3" fill="#E2E2E2" stroke="#FFFFFF" stroke-miterlimit="10" width="8.9" height="8.9"/>
<rect x="97" y="32.1" fill="#E2E2E2" stroke="#FFFFFF" stroke-miterlimit="10" width="8.9" height="8.9"/>
<rect x="105.9" y="23.3" fill="#E2E2E2" stroke="#FFFFFF" stroke-miterlimit="10" width="8.9" height="8.9"/>
<rect x="105.9" y="32.1" fill="#A88BAC" stroke="#FFFFFF" stroke-miterlimit="10" width="8.9" height="8.9"/>
<rect x="105.9" y="14.4" fill="#E2E2E2" stroke="#FFFFFF" stroke-miterlimit="10" width="8.9" height="8.9"/>
<rect x="114.7" y="14.4" fill="#E2E2E2" stroke="#FFFFFF" stroke-miterlimit="10" width="8.9" height="8.9"/>
<rect x="114.7" y="32.1" fill="#A88BAC" stroke="#FFFFFF" stroke-miterlimit="10" width="8.9" height="8.9"/>
<rect x="114.7" y="5.5" fill="#E2E2E2" stroke="#FFFFFF" stroke-miterlimit="10" width="8.9" height="8.9"/>
<rect x="25.9" y="41" fill="#E2E2E2" stroke="#FFFFFF" stroke-miterlimit="10" width="8.9" height="8.9"/>
<rect x="34.8" y="41" fill="#A88BAC" stroke="#FFFFFF" stroke-miterlimit="10" width="8.9" height="8.9"/>
<rect x="43.7" y="41" fill="#E2E2E2" stroke="#FFFFFF" stroke-miterlimit="10" width="8.9" height="8.9"/>
<rect x="52.6" y="41" fill="#A88BAC" stroke="#FFFFFF" stroke-miterlimit="10" width="8.9" height="8.9"/>
<rect x="61.5" y="41" fill="#A88BAC" stroke="#FFFFFF" stroke-miterlimit="10" width="8.9" height="8.9"/>
<rect x="70.3" y="41" fill="#A88BAC" stroke="#FFFFFF" stroke-miterlimit="10" width="8.9" height="8.9"/>
<rect x="79.2" y="41" fill="#E2E2E2" stroke="#FFFFFF" stroke-miterlimit="10" width="8.9" height="8.9"/>
<rect x="88.1" y="41" fill="#A88BAC" stroke="#FFFFFF" stroke-miterlimit="10" width="8.9" height="8.9"/>
<rect x="97" y="41" fill="#A88BAC" stroke="#FFFFFF" stroke-miterlimit="10" width="8.9" height="8.9"/>
<rect x="105.9" y="41" fill="#E2E2E2" stroke="#FFFFFF" stroke-miterlimit="10" width="8.9" height="8.9"/>
<rect x="34.8" y="49.8" fill="#A88BAC" stroke="#FFFFFF" stroke-miterlimit="10" width="8.9" height="8.9"/>
<rect x="43.7" y="49.8" fill="#E2E2E2" stroke="#FFFFFF" stroke-miterlimit="10" width="8.9" height="8.9"/>
<rect x="52.6" y="49.8" fill="#E2E2E2" stroke="#FFFFFF" stroke-miterlimit="10" width="8.9" height="8.9"/>
<rect x="61.5" y="49.8" fill="#A88BAC" stroke="#FFFFFF" stroke-miterlimit="10" width="8.9" height="8.9"/>
<rect x="70.3" y="49.8" fill="#A88BAC" stroke="#FFFFFF" stroke-miterlimit="10" width="8.9" height="8.9"/>
<rect x="79.2" y="49.8" fill="#A88BAC" stroke="#FFFFFF" stroke-miterlimit="10" width="8.9" height="8.9"/>
<rect x="88.1" y="49.8" fill="#A88BAC" stroke="#FFFFFF" stroke-miterlimit="10" width="8.9" height="8.9"/>
<rect x="97" y="49.8" fill="#E2E2E2" stroke="#FFFFFF" stroke-miterlimit="10" width="8.9" height="8.9"/>
<rect x="52.6" y="58.7" fill="#A88BAC" stroke="#FFFFFF" stroke-miterlimit="10" width="8.9" height="8.9"/>
<rect x="61.5" y="58.7" fill="#A88BAC" stroke="#FFFFFF" stroke-miterlimit="10" width="8.9" height="8.9"/>
<rect x="70.3" y="58.7" fill="#A88BAC" stroke="#FFFFFF" stroke-miterlimit="10" width="8.9" height="8.9"/>
<rect x="79.2" y="58.7" fill="#A88BAC" stroke="#FFFFFF" stroke-miterlimit="10" width="8.9" height="8.9"/>
<rect x="88.1" y="58.7" fill="#E2E2E2" stroke="#FFFFFF" stroke-miterlimit="10" width="8.9" height="8.9"/>
<rect x="52.6" y="67.6" fill="#E2E2E2" stroke="#FFFFFF" stroke-miterlimit="10" width="8.9" height="8.9"/>
<rect x="97" y="67.6" fill="#A88BAC" stroke="#FFFFFF" stroke-miterlimit="10" width="8.9" height="8.9"/>
<rect x="17" y="67.6" fill="#E2E2E2" stroke="#FFFFFF" stroke-miterlimit="10" width="8.9" height="8.9"/>
<rect x="25.9" y="67.6" fill="#E2E2E2" stroke="#FFFFFF" stroke-miterlimit="10" width="8.9" height="8.9"/>
</svg>
