<?xml version="1.0" encoding="utf-8"?>
<!-- Generator: Adobe Illustrator 20.1.0, SVG Export Plug-In . SVG Version: 6.00 Build 0)  -->
<svg version="1.1" xmlns="http://www.w3.org/2000/svg" xmlns:xlink="http://www.w3.org/1999/xlink" x="0px" y="0px"
	 viewBox="0 0 480 407" enable-background="new 0 0 480 407" xml:space="preserve">
<g id="Screenshot_1_">
</g>
<g id="Map">
	<path id="NH" fill="#FFFFFF" stroke="#D1D3D4" stroke-miterlimit="10" d="M458.6,87.5h-30c-1.6,0-2.9-1.3-2.9-2.9v-30
		c0-1.6,1.3-2.9,2.9-2.9h30c1.6,0,2.9,1.3,2.9,2.9v30C461.5,86.2,460.2,87.5,458.6,87.5z"/>
	<path id="Me" fill="#FFFFFF" stroke="#D1D3D4" stroke-miterlimit="10" d="M458.6,50h-30c-1.6,0-2.9-1.3-2.9-2.9v-30
		c0-1.6,1.3-2.9,2.9-2.9h30c1.6,0,2.9,1.3,2.9,2.9v30C461.5,48.7,460.2,50,458.6,50z"/>
	<path id="VT" fill="#FFFFFF" stroke="#D1D3D4" stroke-miterlimit="10" d="M420.4,87.5h-30c-1.6,0-2.9-1.3-2.9-2.9v-30
		c0-1.6,1.3-2.9,2.9-2.9h30c1.6,0,2.9,1.3,2.9,2.9v30C423.3,86.2,422,87.5,420.4,87.5z"/>
	<path id="MA" fill="#FFFFFF" stroke="#D1D3D4" stroke-miterlimit="10" d="M420.4,126h-30c-1.6,0-2.9-1.3-2.9-2.9v-30
		c0-1.6,1.3-2.9,2.9-2.9h30c1.6,0,2.9,1.3,2.9,2.9v30C423.3,124.7,422,126,420.4,126z"/>
	<path id="NY" fill="#FFFFFF" stroke="#D1D3D4" stroke-miterlimit="10" d="M383,163.8h-30c-1.6,0-2.9-1.3-2.9-2.9v-30
		c0-1.6,1.3-2.9,2.9-2.9h30c1.6,0,2.9,1.3,2.9,2.9v30C385.9,162.4,384.6,163.8,383,163.8z"/>
	<path id="NJ" fill="#FFFFFF" stroke="#D1D3D4" stroke-miterlimit="10" d="M383,126h-30c-1.6,0-2.9-1.3-2.9-2.9v-30
		c0-1.6,1.3-2.9,2.9-2.9h30c1.6,0,2.9,1.3,2.9,2.9v30C385.9,124.7,384.6,126,383,126z"/>
	<path id="DE" fill="#FFFFFF" stroke="#D1D3D4" stroke-miterlimit="10" d="M420.9,201.3h-30c-1.6,0-2.9-1.3-2.9-2.9v-30
		c0-1.6,1.3-2.9,2.9-2.9h30c1.6,0,2.9,1.3,2.9,2.9v30C423.8,200,422.5,201.3,420.9,201.3z"/>
	<path id="DC" fill="#FFFFFF" stroke="#D1D3D4" stroke-miterlimit="10" d="M383,238.8h-30c-1.6,0-2.9-1.3-2.9-2.9v-30
		c0-1.6,1.3-2.9,2.9-2.9h30c1.6,0,2.9,1.3,2.9,2.9v30C385.9,237.5,384.6,238.8,383,238.8z"/>
	<path id="GA" fill="#FFFFFF" stroke="#D1D3D4" stroke-miterlimit="10" d="M345.4,276.3h-30c-1.6,0-2.9-1.3-2.9-2.9v-30
		c0-1.6,1.3-2.9,2.9-2.9h30c1.6,0,2.9,1.3,2.9,2.9v30C348.3,275,347,276.3,345.4,276.3z"/>
	<path id="WV" fill="#FFFFFF" stroke="#D1D3D4" stroke-miterlimit="10" d="M307.4,201.2h-30c-1.6,0-2.9-1.3-2.9-2.9v-30
		c0-1.6,1.3-2.9,2.9-2.9h30c1.6,0,2.9,1.3,2.9,2.9v30C310.4,199.9,309.1,201.2,307.4,201.2z"/>
	<path id="IA" fill="#FFFFFF" stroke="#D1D3D4" stroke-miterlimit="10" d="M231.3,163.7h-30c-1.6,0-2.9-1.3-2.9-2.9v-30
		c0-1.6,1.3-2.9,2.9-2.9h30c1.6,0,2.9,1.3,2.9,2.9v30C234.2,162.4,232.9,163.7,231.3,163.7z"/>
	<path id="IL" fill="#FFFFFF" stroke="#D1D3D4" stroke-miterlimit="10" d="M269.7,126h-30c-1.6,0-2.9-1.3-2.9-2.9v-30
		c0-1.6,1.3-2.9,2.9-2.9h30c1.6,0,2.9,1.3,2.9,2.9v30C272.6,124.7,271.3,126,269.7,126z"/>
	<path id="MN" fill="#FFFFFF" stroke="#D1D3D4" stroke-miterlimit="10" d="M231.3,126h-30c-1.6,0-2.9-1.3-2.9-2.9v-30
		c0-1.6,1.3-2.9,2.9-2.9h30c1.6,0,2.9,1.3,2.9,2.9v30C234.2,124.7,232.9,126,231.3,126z"/>
	<path id="KS" fill="#FFFFFF" stroke="#D1D3D4" stroke-miterlimit="10" d="M194.3,238.7h-30c-1.6,0-2.9-1.3-2.9-2.9v-30
		c0-1.6,1.3-2.9,2.9-2.9h30c1.6,0,2.9,1.3,2.9,2.9v30C197.2,237.4,195.9,238.7,194.3,238.7z"/>
	<path id="TX" fill="#FFFFFF" stroke="#231F20" stroke-miterlimit="10" d="M194.3,313.7h-30c-1.6,0-2.9-1.3-2.9-2.9v-30
		c0-1.6,1.3-2.9,2.9-2.9h30c1.6,0,2.9,1.3,2.9,2.9v30C197.2,312.4,195.9,313.7,194.3,313.7z"/>
	<path id="MT" fill="#FFFFFF" stroke="#D1D3D4" stroke-miterlimit="10" d="M155.9,126h-30c-1.6,0-2.9-1.3-2.9-2.9v-30
		c0-1.6,1.3-2.9,2.9-2.9h30c1.6,0,2.9,1.3,2.9,2.9v30C158.8,124.7,157.5,126,155.9,126z"/>
	<path id="WY" fill="#FFFFFF" stroke="#D1D3D4" stroke-miterlimit="10" d="M156,163.7h-30c-1.6,0-2.9-1.3-2.9-2.9v-30
		c0-1.6,1.3-2.9,2.9-2.9h30c1.6,0,2.9,1.3,2.9,2.9v30C158.9,162.4,157.6,163.7,156,163.7z"/>
	<path id="CO" fill="#FFFFFF" stroke="#D1D3D4" stroke-miterlimit="10" d="M156.4,201.3h-30c-1.6,0-2.9-1.3-2.9-2.9v-30
		c0-1.6,1.3-2.9,2.9-2.9h30c1.6,0,2.9,1.3,2.9,2.9v30C159.3,200,158,201.3,156.4,201.3z"/>
	<path id="NM" fill="#FFFFFF" stroke="#D1D3D4" stroke-miterlimit="10" d="M156.6,238.8h-30c-1.6,0-2.9-1.3-2.9-2.9v-30
		c0-1.6,1.3-2.9,2.9-2.9h30c1.6,0,2.9,1.3,2.9,2.9v30C159.5,237.5,158.2,238.8,156.6,238.8z"/>
	<path id="ID" fill="#FFFFFF" stroke="#D1D3D4" stroke-miterlimit="10" d="M118.2,126h-30c-1.6,0-2.9-1.3-2.9-2.9v-30
		c0-1.6,1.3-2.9,2.9-2.9h30c1.6,0,2.9,1.3,2.9,2.9v30C121.1,124.7,119.8,126,118.2,126z"/>
	<path id="NV" fill="#FFFFFF" stroke="#D1D3D4" stroke-miterlimit="10" d="M118.3,163.7h-30c-1.6,0-2.9-1.3-2.9-2.9v-30
		c0-1.6,1.3-2.9,2.9-2.9h30c1.6,0,2.9,1.3,2.9,2.9v30C121.2,162.4,119.9,163.7,118.3,163.7z"/>
	<path id="CA" fill="#FFFFFF" stroke="#D1D3D4" stroke-miterlimit="10" d="M80.6,201.1h-30c-1.6,0-2.9-1.3-2.9-2.9v-30
		c0-1.6,1.3-2.9,2.9-2.9h30c1.6,0,2.9,1.3,2.9,2.9v30C83.5,199.8,82.2,201.1,80.6,201.1z"/>
	<path id="OR" fill="#FFFFFF" stroke="#D1D3D4" stroke-miterlimit="10" d="M80.6,163.6h-30c-1.6,0-2.9-1.3-2.9-2.9v-30
		c0-1.6,1.3-2.9,2.9-2.9h30c1.6,0,2.9,1.3,2.9,2.9v30C83.5,162.3,82.2,163.6,80.6,163.6z"/>
	<path id="WA" fill="#FFFFFF" stroke="#D1D3D4" stroke-miterlimit="10" d="M80.6,126h-30c-1.6,0-2.9-1.3-2.9-2.9v-30
		c0-1.6,1.3-2.9,2.9-2.9h30c1.6,0,2.9,1.3,2.9,2.9v30C83.5,124.7,82.2,126,80.6,126z"/>
	<path id="AK" fill="#FFFFFF" stroke="#D1D3D4" stroke-miterlimit="10" d="M80.5,313.7h-30c-1.6,0-2.9-1.3-2.9-2.9v-30
		c0-1.6,1.3-2.9,2.9-2.9h30c1.6,0,2.9,1.3,2.9,2.9v30C83.4,312.4,82.1,313.7,80.5,313.7z"/>
	<path id="HI" fill="#FFFFFF" stroke="#D1D3D4" stroke-miterlimit="10" d="M41.2,313.7h-30c-1.6,0-2.9-1.3-2.9-2.9v-30
		c0-1.6,1.3-2.9,2.9-2.9h30c1.6,0,2.9,1.3,2.9,2.9v30C44.1,312.4,42.8,313.7,41.2,313.7z"/>
	<path id="RI" fill="#C4B0C7" d="M458.5,163.8h-30c-1.6,0-2.9-1.3-2.9-2.9v-30c0-1.6,1.3-2.9,2.9-2.9h30c1.6,0,2.9,1.3,2.9,2.9v30
		C461.4,162.4,460.1,163.8,458.5,163.8z"/>
	<path id="CT" fill="#C4B0C7" d="M421.1,163.8h-30c-1.6,0-2.9-1.3-2.9-2.9v-30c0-1.6,1.3-2.9,2.9-2.9h30c1.6,0,2.9,1.3,2.9,2.9v30
		C424.1,162.4,422.8,163.8,421.1,163.8z"/>
	<path id="MD" fill="#C4B0C7" d="M383,201.1h-30c-1.6,0-2.9-1.3-2.9-2.9v-30c0-1.6,1.3-2.9,2.9-2.9h30c1.6,0,2.9,1.3,2.9,2.9v30
		C385.9,199.8,384.6,201.1,383,201.1z"/>
	<path id="SC" fill="#C4B0C7" d="M345.4,238.7h-30c-1.6,0-2.9-1.3-2.9-2.9v-30c0-1.6,1.3-2.9,2.9-2.9h30c1.6,0,2.9,1.3,2.9,2.9v30
		C348.3,237.4,347,238.7,345.4,238.7z"/>
	<path id="VA" fill="#C4B0C7" d="M345.4,201h-30c-1.6,0-2.9-1.3-2.9-2.9v-30c0-1.6,1.3-2.9,2.9-2.9h30c1.6,0,2.9,1.3,2.9,2.9v30
		C348.3,199.7,347,201,345.4,201z"/>
	<path id="PA" fill="#C4B0C7" d="M345.4,163.4h-30c-1.6,0-2.9-1.3-2.9-2.9v-30c0-1.6,1.3-2.9,2.9-2.9h30c1.6,0,2.9,1.3,2.9,2.9v30
		C348.3,162.1,347,163.4,345.4,163.4z"/>
	<path id="OH" fill="#C4B0C7" d="M307.4,163.7h-30c-1.6,0-2.9-1.3-2.9-2.9v-30c0-1.6,1.3-2.9,2.9-2.9h30c1.6,0,2.9,1.3,2.9,2.9v30
		C310.4,162.4,309.1,163.7,307.4,163.7z"/>
	<path id="MI" fill="#C4B0C7" d="M307.4,126h-30c-1.6,0-2.9-1.3-2.9-2.9v-30c0-1.6,1.3-2.9,2.9-2.9h30c1.6,0,2.9,1.3,2.9,2.9v30
		C310.4,124.7,309.1,126,307.4,126z"/>
	<path id="NC" fill="#C4B0C7" d="M307.4,238.8h-30c-1.6,0-2.9-1.3-2.9-2.9v-30c0-1.6,1.3-2.9,2.9-2.9h30c1.6,0,2.9,1.3,2.9,2.9v30
		C310.4,237.5,309.1,238.8,307.4,238.8z"/>
	<path id="AL" fill="#C4B0C7" d="M307.4,276.3h-30c-1.6,0-2.9-1.3-2.9-2.9v-30c0-1.6,1.3-2.9,2.9-2.9h30c1.6,0,2.9,1.3,2.9,2.9v30
		C310.4,275,309.1,276.3,307.4,276.3z"/>
	<path id="MS" fill="#C4B0C7" d="M269.7,276.3h-30c-1.6,0-2.9-1.3-2.9-2.9v-30c0-1.6,1.3-2.9,2.9-2.9h30c1.6,0,2.9,1.3,2.9,2.9v30
		C272.6,275,271.3,276.3,269.7,276.3z"/>
	<path id="LA" fill="#C4B0C7" d="M232.3,276.3h-30c-1.6,0-2.9-1.3-2.9-2.9v-30c0-1.6,1.3-2.9,2.9-2.9h30c1.6,0,2.9,1.3,2.9,2.9v30
		C235.2,275,233.9,276.3,232.3,276.3z"/>
	<path id="OK" fill="#C4B0C7" d="M194.3,276.2h-30c-1.6,0-2.9-1.3-2.9-2.9v-30c0-1.6,1.3-2.9,2.9-2.9h30c1.6,0,2.9,1.3,2.9,2.9v30
		C197.2,274.9,195.9,276.2,194.3,276.2z"/>
	<path id="NE" fill="#C4B0C7" d="M194.3,201.1h-30c-1.6,0-2.9-1.3-2.9-2.9v-30c0-1.6,1.3-2.9,2.9-2.9h30c1.6,0,2.9,1.3,2.9,2.9v30
		C197.2,199.8,195.9,201.1,194.3,201.1z"/>
	<path id="IN" fill="#C4B0C7" d="M269.7,163h-30c-1.6,0-2.9-1.3-2.9-2.9v-30c0-1.6,1.3-2.9,2.9-2.9h30c1.6,0,2.9,1.3,2.9,2.9v30
		C272.6,161.7,271.3,163,269.7,163z"/>
	<path id="KY" fill="#C4B0C7" d="M269.7,200.8h-30c-1.6,0-2.9-1.3-2.9-2.9v-30c0-1.6,1.3-2.9,2.9-2.9h30c1.6,0,2.9,1.3,2.9,2.9v30
		C272.6,199.5,271.3,200.8,269.7,200.8z"/>
	<path id="AR" fill="#C4B0C7" d="M232,238.8h-30c-1.6,0-2.9-1.3-2.9-2.9v-30c0-1.6,1.3-2.9,2.9-2.9h30c1.6,0,2.9,1.3,2.9,2.9v30
		C234.9,237.5,233.6,238.8,232,238.8z"/>
	<linearGradient id="TN_1_" gradientUnits="userSpaceOnUse" x1="271.7265" y1="237.6963" x2="237.6353" y2="203.6051">
		<stop  offset="0.4754" style="stop-color:#A9BDB0"/>
		<stop  offset="0.5" style="stop-color:#FFFFFF"/>
		<stop  offset="0.537" style="stop-color:#C4B0C7"/>
	</linearGradient>
	<path id="TN" fill="url(#TN_1_)" d="M269.7,238.5h-30c-1.6,0-2.9-1.3-2.9-2.9v-30c0-1.6,1.3-2.9,2.9-2.9h30c1.6,0,2.9,1.3,2.9,2.9
		v30C272.6,237.2,271.3,238.5,269.7,238.5z"/>
	<linearGradient id="MO_1_" gradientUnits="userSpaceOnUse" x1="234.2991" y1="200.3569" x2="200.2079" y2="166.2657">
		<stop  offset="0.4754" style="stop-color:#A9BDB0"/>
		<stop  offset="0.5" style="stop-color:#FFFFFF"/>
		<stop  offset="0.537" style="stop-color:#C4B0C7"/>
	</linearGradient>
	<path id="MO" fill="url(#MO_1_)" d="M232.2,201.2h-30c-1.6,0-2.9-1.3-2.9-2.9v-30c0-1.6,1.3-2.9,2.9-2.9h30c1.6,0,2.9,1.3,2.9,2.9
		v30C235.2,199.9,233.8,201.2,232.2,201.2z"/>
	<path id="WI" fill="#C4B0C7" d="M269.7,87.5h-30c-1.6,0-2.9-1.3-2.9-2.9v-30c0-1.6,1.3-2.9,2.9-2.9h30c1.6,0,2.9,1.3,2.9,2.9v30
		C272.6,86.2,271.3,87.5,269.7,87.5z"/>
	<path id="SD" fill="#C4B0C7" d="M193.7,163.6h-30c-1.6,0-2.9-1.3-2.9-2.9v-30c0-1.6,1.3-2.9,2.9-2.9h30c1.6,0,2.9,1.3,2.9,2.9v30
		C196.6,162.3,195.3,163.6,193.7,163.6z"/>
	<linearGradient id="UT_1_" gradientUnits="userSpaceOnUse" x1="120.5122" y1="200.4082" x2="86.4211" y2="166.317">
		<stop  offset="0.4754" style="stop-color:#A9BDB0"/>
		<stop  offset="0.5" style="stop-color:#FFFFFF"/>
		<stop  offset="0.537" style="stop-color:#C4B0C7"/>
	</linearGradient>
	<path id="UT" fill="url(#UT_1_)" d="M118.5,201.3h-30c-1.6,0-2.9-1.3-2.9-2.9v-30c0-1.6,1.3-2.9,2.9-2.9h30c1.6,0,2.9,1.3,2.9,2.9
		v30C121.4,200,120.1,201.3,118.5,201.3z"/>
	<path id="AR_1_" fill="#C4B0C7" d="M118.2,238.8h-30c-1.6,0-2.9-1.3-2.9-2.9v-30c0-1.6,1.3-2.9,2.9-2.9h30c1.6,0,2.9,1.3,2.9,2.9
		v30C121.1,237.5,119.8,238.8,118.2,238.8z"/>
	<path id="FL" fill="#C4B0C7" d="M383.9,313.7h-30c-1.6,0-2.9-1.3-2.9-2.9v-30c0-1.6,1.3-2.9,2.9-2.9h30c1.6,0,2.9,1.3,2.9,2.9v30
		C386.8,312.4,385.5,313.7,383.9,313.7z"/>
	<path id="ND" fill="#A9BDB0" d="M193.6,126h-30c-1.6,0-2.9-1.3-2.9-2.9v-30c0-1.6,1.3-2.9,2.9-2.9h30c1.6,0,2.9,1.3,2.9,2.9v30
		C196.5,124.7,195.2,126,193.6,126z"/>
</g>
<g id="State_Names">
	<rect x="433.9" y="26.6" fill="none" width="22.1" height="11.1"/>
	<text transform="matrix(1 0 0 1 433.8576 36.7178)" font-family="'FranklinGothicLightSSiLight'" font-size="16px">ME</text>
	<rect x="433.9" y="64" fill="none" width="22.1" height="11.1"/>
	<text transform="matrix(1 0 0 1 435.1467 74.1691)" font-family="'FranklinGothicLightSSiLight'" font-size="16px">NH</text>
	<rect x="395.1" y="64" fill="none" width="22.1" height="11.1"/>
	<text transform="matrix(1 0 0 1 398.4538 74.1691)" font-family="'FranklinGothicLightSSiLight'" font-size="16px">VT</text>
	<rect x="394.4" y="102.6" fill="none" width="22.1" height="11.1"/>
	<text transform="matrix(1 0 0 1 395.2247 112.7058)" font-family="'FranklinGothicLightSSiLight'" font-size="16px">MA</text>
	<rect x="357.8" y="102.6" fill="none" width="22.1" height="11.1"/>
	<text transform="matrix(1 0 0 1 359.9341 112.7058)" font-family="'FranklinGothicLightSSiLight'" font-size="16px">NY</text>
	<rect x="320.6" y="252.9" fill="none" width="22.1" height="11.1"/>
	<text transform="matrix(1 0 0 1 322.6682 263.026)" font-family="'FranklinGothicLightSSiLight'" font-size="16px">GA</text>
	<rect x="356.9" y="215.4" fill="none" width="22.1" height="11.1"/>
	<text transform="matrix(1 0 0 1 358.5423 225.5476)" font-family="'FranklinGothicLightSSiLight'" font-size="16px">DC</text>
	<rect x="320.6" y="215.4" fill="none" width="22.1" height="11.1"/>
	<text transform="matrix(1 0 0 1 322.4924 225.5476)" font-family="'FranklinGothicLightSSiLight'" font-size="16px">SC</text>
	<rect x="320.6" y="177.3" fill="none" width="22.1" height="11.1"/>
	<text transform="matrix(1 0 0 1 323.469 187.4833)" font-family="'FranklinGothicLightSSiLight'" font-size="16px">VA</text>
	<rect x="320.6" y="140.3" fill="none" width="22.1" height="11.1"/>
	<text transform="matrix(1 0 0 1 323.469 150.4583)" font-family="'FranklinGothicLightSSiLight'" font-size="16px">PA</text>
	<rect x="357.8" y="177.9" fill="none" width="22.1" height="11.1"/>
	<text transform="matrix(1 0 0 1 357.8989 188.003)" font-family="'FranklinGothicLightSSiLight'" font-size="16px">MD</text>
	<rect x="394.8" y="177.8" fill="none" width="22.1" height="11.1"/>
	<text transform="matrix(1 0 0 1 396.9376 187.9665)" font-family="'FranklinGothicLightSSiLight'" font-size="16px">DE</text>
	<rect x="357.8" y="140.1" fill="none" width="22.1" height="11.1"/>
	<text transform="matrix(1 0 0 1 361.02 150.2511)" font-family="'FranklinGothicLightSSiLight'" font-size="16px">NJ</text>
	<rect x="432.6" y="140.3" fill="none" width="22.1" height="11.1"/>
	<text transform="matrix(1 0 0 1 437.1556 150.4583)" font-family="'FranklinGothicLightSSiLight'" font-size="16px">RI</text>
	<rect x="395.1" y="140.3" fill="none" width="22.1" height="11.1"/>
	<text transform="matrix(1 0 0 1 397.9655 150.4583)" font-family="'FranklinGothicLightSSiLight'" font-size="16px">CT</text>
	<rect x="246" y="140.3" fill="none" width="22.1" height="11.1"/>
	<text transform="matrix(1 0 0 1 250.3123 150.4583)" font-family="'FranklinGothicLightSSiLight'" font-size="16px">IN</text>
	<rect x="243.8" y="180.4" fill="none" width="22.1" height="11.1"/>
	<text transform="matrix(1 0 0 1 246.2106 190.5684)" font-family="'FranklinGothicLightSSiLight'" font-size="16px">KY</text>
	<rect x="243.7" y="215.4" fill="none" width="22.1" height="11.1"/>
	<text transform="matrix(1 0 0 1 246.2108 225.5476)" font-family="'FranklinGothicLightSSiLight'" font-size="16px">TN</text>
	<rect x="243.6" y="252.9" fill="none" width="22.1" height="11.1"/>
	<text transform="matrix(1 0 0 1 244.0007 263.026)" font-family="'FranklinGothicLightSSiLight'" font-size="16px">MS</text>
	<rect x="281.4" y="252.9" fill="none" width="22.1" height="11.1"/>
	<text transform="matrix(1 0 0 1 284.7541 263.026)" font-family="'FranklinGothicLightSSiLight'" font-size="16px">AL</text>
	<rect x="281.5" y="215.4" fill="none" width="22.1" height="11.1"/>
	<text transform="matrix(1 0 0 1 283.0989 225.5476)" font-family="'FranklinGothicLightSSiLight'" font-size="16px">NC</text>
	<rect x="281.4" y="177.8" fill="none" width="22.1" height="11.1"/>
	<text transform="matrix(1 0 0 1 282.2658 187.9665)" font-family="'FranklinGothicLightSSiLight'" font-size="16px">WV</text>
	<rect x="281.5" y="140.3" fill="none" width="22.1" height="11.1"/>
	<text transform="matrix(1 0 0 1 282.7864 150.4583)" font-family="'FranklinGothicLightSSiLight'" font-size="16px">OH</text>
	<rect x="281.4" y="102.6" fill="none" width="22.1" height="11.1"/>
	<text transform="matrix(1 0 0 1 284.4416 112.7058)" font-family="'FranklinGothicLightSSiLight'" font-size="16px">MI</text>
	<rect x="243.6" y="64" fill="none" width="22.1" height="11.1"/>
	<text transform="matrix(1 0 0 1 246.6647 74.1692)" font-family="'FranklinGothicLightSSiLight'" font-size="16px">WI</text>
	<rect x="130.3" y="177.8" fill="none" width="22.1" height="11.1"/>
	<text transform="matrix(1 0 0 1 131.9497 187.9665)" font-family="'FranklinGothicLightSSiLight'" font-size="16px">CO</text>
	<rect x="129.9" y="140.2" fill="none" width="22.1" height="11.1"/>
	<text transform="matrix(1 0 0 1 130.8015 150.3855)" font-family="'FranklinGothicLightSSiLight'" font-size="16px">WY</text>
	<rect x="130.6" y="102.6" fill="none" width="22.1" height="11.1"/>
	<text transform="matrix(1 0 0 1 131.8951 112.7058)" font-family="'FranklinGothicLightSSiLight'" font-size="16px">MT</text>
	<rect x="169" y="102.6" fill="none" width="22.1" height="11.1"/>
	<text transform="matrix(1 0 0 1 170.2552 112.7058)" font-family="'FranklinGothicLightSSiLight'" font-size="16px">ND</text>
	<rect x="169" y="140.3" fill="none" width="22.1" height="11.1"/>
	<text transform="matrix(1 0 0 1 170.5677 150.4583)" font-family="'FranklinGothicLightSSiLight'" font-size="16px">SD</text>
	<rect x="169" y="177.8" fill="none" width="22.1" height="11.1"/>
	<text transform="matrix(1 0 0 1 171.056 187.9665)" font-family="'FranklinGothicLightSSiLight'" font-size="16px">NE</text>
	<rect x="168.3" y="215.2" fill="none" width="22.1" height="11.1"/>
	<text transform="matrix(1 0 0 1 170.1699 225.3826)" font-family="'FranklinGothicLightSSiLight'" font-size="16px">KS</text>
	<rect x="169" y="252.9" fill="none" width="22.1" height="11.1"/>
	<text transform="matrix(1 0 0 1 170.5677 263.026)" font-family="'FranklinGothicLightSSiLight'" font-size="16px">OK</text>
	<rect x="206.3" y="252.9" fill="none" width="22.1" height="11.1"/>
	<text transform="matrix(1 0 0 1 209.6436 263.026)" font-family="'FranklinGothicLightSSiLight'" font-size="16px">LA</text>
	<rect x="205.9" y="215.3" fill="none" width="22.1" height="11.1"/>
	<text transform="matrix(1 0 0 1 208.3275 225.4706)" font-family="'FranklinGothicLightSSiLight'" font-size="16px">AR</text>
	<rect x="206.2" y="177.8" fill="none" width="22.1" height="11.1"/>
	<text transform="matrix(1 0 0 1 206.2608 187.9152)" font-family="'FranklinGothicLightSSiLight'" font-size="16px">MO</text>
	<rect x="206.3" y="140.3" fill="none" width="22.1" height="11.1"/>
	<text transform="matrix(1 0 0 1 211.3662 150.4583)" font-family="'FranklinGothicLightSSiLight'" font-size="16px">IA</text>
	<rect x="206.3" y="102.6" fill="none" width="22.1" height="11.1"/>
	<text transform="matrix(1 0 0 1 206.3545 112.7058)" font-family="'FranklinGothicLightSSiLight'" font-size="16px">MN</text>
	<rect x="243.3" y="102.6" fill="none" width="22.1" height="11.1"/>
	<text transform="matrix(1 0 0 1 248.843 112.7058)" font-family="'FranklinGothicLightSSiLight'" font-size="16px">IL</text>
	<rect x="168.3" y="290.3" fill="none" width="22.1" height="11.1"/>
	
		<text transform="matrix(1 0 0 1 171.5996 300.4346)" stroke="#231F20" stroke-width="0.5" stroke-miterlimit="10" font-family="'FranklinGothicLightSSiLight'" font-size="16px">TX</text>
	<rect x="15.2" y="290.3" fill="none" width="22.1" height="11.1"/>
	<text transform="matrix(1 0 0 1 19.4241 300.4346)" font-family="'FranklinGothicLightSSiLight'" font-size="16px">HI</text>
	<rect x="54.5" y="290.3" fill="none" width="22.1" height="11.1"/>
	<text transform="matrix(1 0 0 1 56.8926 300.4346)" font-family="'FranklinGothicLightSSiLight'" font-size="16px">AK</text>
	<rect x="54.9" y="102.6" fill="none" width="22.1" height="11.1"/>
	<text transform="matrix(1 0 0 1 55.7287 112.7058)" font-family="'FranklinGothicLightSSiLight'" font-size="16px">WA</text>
	<rect x="54.5" y="140.3" fill="none" width="22.1" height="11.1"/>
	<text transform="matrix(1 0 0 1 56.0918 150.4583)" font-family="'FranklinGothicLightSSiLight'" font-size="16px">OR</text>
	<rect x="54.6" y="177.8" fill="none" width="22.1" height="11.1"/>
	<text transform="matrix(1 0 0 1 56.9703 187.9665)" font-family="'FranklinGothicLightSSiLight'" font-size="16px">CA</text>
	<rect x="92.4" y="215.4" fill="none" width="22.1" height="11.1"/>
	<text transform="matrix(1 0 0 1 95.3098 225.5476)" font-family="'FranklinGothicLightSSiLight'" font-size="16px">AZ</text>
	<rect x="92.4" y="177.8" fill="none" width="22.1" height="11.1"/>
	<text transform="matrix(1 0 0 1 95.1301 187.9665)" font-family="'FranklinGothicLightSSiLight'" font-size="16px">UT</text>
	<rect x="92.4" y="140.1" fill="none" width="22.1" height="11.1"/>
	<text transform="matrix(1 0 0 1 94.509 150.2511)" font-family="'FranklinGothicLightSSiLight'" font-size="16px">NV</text>
	<rect x="92.4" y="102.6" fill="none" width="22.1" height="11.1"/>
	<text transform="matrix(1 0 0 1 96.6848 112.7058)" font-family="'FranklinGothicLightSSiLight'" font-size="16px">ID</text>
	<rect x="130.6" y="215.1" fill="none" width="22.1" height="11.1"/>
	<text transform="matrix(1 0 0 1 130.6412 225.2546)" font-family="'FranklinGothicLightSSiLight'" font-size="16px">NM</text>
	<rect x="357.8" y="290.3" fill="none" width="22.1" height="11.1"/>
	<text transform="matrix(1 0 0 1 361.8169 300.4346)" font-family="'FranklinGothicLightSSiLight'" font-size="16px">FL</text>
	<g>
		
			<rect x="170.7" y="319.5" transform="matrix(0.1973 -0.9803 0.9803 0.1973 -176.3124 428.6501)" fill="none" width="5.9" height="4.9"/>
		<g>
			<polygon points="175.4,325.3 173.2,323.8 170.6,324.4 174.2,319.1 			"/>
		</g>
	</g>
</g>
<g id="Text">
	<rect x="198.2" y="322.5" fill="none" width="266.9" height="82"/>
	<text transform="matrix(1 0 0 1 198.1708 331.376)"><tspan x="0" y="0" font-family="'FranklinGothicLightSSiLight'" font-size="14px">The Supreme Court on June 27 struck down </tspan><tspan x="0" y="15" font-family="'FranklinGothicLightSSiLight'" font-size="14px">portions of a TX Law that required doctors </tspan><tspan x="0" y="30" font-family="'FranklinGothicLightSSiLight'" font-size="14px">to have admitting priviledges at a nearby </tspan><tspan x="0" y="45" font-family="'FranklinGothicLightSSiLight'" font-size="14px">hospital and clinics to meet ambulatory </tspan><tspan x="0" y="60" font-family="'FranklinGothicLightSSiLight'" font-size="14px">surgical center standards. </tspan><tspan x="158.4" y="60" font-family="'FranklinGothicLightSSiLight'" font-size="16px"> </tspan></text>
</g>
<g id="Arrows">
	<path fill="none" d="M173,324.6c0-18-25.1-32.6-56-32.6"/>
	<path fill="none" d="M172.7,320.3c0,22.3,8.2,40.3,18.4,40.3"/>
	<path fill="none" stroke="#231F20" stroke-miterlimit="10" d="M173,324.6c-4.3,19.6,6.1,31,18.1,29.4"/>
</g>
</svg>
