<?xml version="1.0" encoding="utf-8"?>
<!-- Generator: Adobe Illustrator 19.1.0, SVG Export Plug-In . SVG Version: 6.00 Build 0)  -->
<svg version="1.1" xmlns="http://www.w3.org/2000/svg" xmlns:xlink="http://www.w3.org/1999/xlink" x="0px" y="0px"
	 viewBox="0 0 480 407" enable-background="new 0 0 480 407" xml:space="preserve">
<g id="background">
	<path fill="none" stroke="#F0F0F0" stroke-width="1.5" stroke-miterlimit="10" d="M94.3,132.3H77c-4.2,0-7.6-3.4-7.6-7.6v-17.4
		c0-4.2,3.4-7.6,7.6-7.6h17.4c4.2,0,7.6,3.4,7.6,7.6v17.4C101.9,128.9,98.5,132.3,94.3,132.3z"/>
	<path fill="none" stroke="#F0F0F0" stroke-width="1.5" stroke-miterlimit="10" d="M126.9,132.3h-17.4c-4.2,0-7.6-3.4-7.6-7.6v-17.4
		c0-4.2,3.4-7.6,7.6-7.6h17.4c4.2,0,7.6,3.4,7.6,7.6v17.4C134.5,128.9,131.1,132.3,126.9,132.3z"/>
	<path fill="none" stroke="#F0F0F0" stroke-width="1.5" stroke-miterlimit="10" d="M159.4,132.3h-17.4c-4.2,0-7.6-3.4-7.6-7.6v-17.4
		c0-4.2,3.4-7.6,7.6-7.6h17.4c4.2,0,7.6,3.4,7.6,7.6v17.4C167,128.9,163.6,132.3,159.4,132.3z"/>
	<path fill="#A9BDB0" stroke="#F0F0F0" stroke-miterlimit="10" d="M192,132.3h-17.4c-4.2,0-7.6-3.4-7.6-7.6v-17.4
		c0-4.2,3.4-7.6,7.6-7.6H192c4.2,0,7.6,3.4,7.6,7.6v17.4C199.6,128.9,196.2,132.3,192,132.3z"/>
	<path fill="none" stroke="#F0F0F0" stroke-width="1.5" stroke-miterlimit="10" d="M224.5,132.3h-17.4c-4.2,0-7.6-3.4-7.6-7.6v-17.4
		c0-4.2,3.4-7.6,7.6-7.6h17.4c4.2,0,7.6,3.4,7.6,7.6v17.4C232.1,128.9,228.7,132.3,224.5,132.3z"/>
	<path fill="none" stroke="#F0F0F0" stroke-width="1.5" stroke-miterlimit="10" d="M257.1,132.3h-17.4c-4.2,0-7.6-3.4-7.6-7.6v-17.4
		c0-4.2,3.4-7.6,7.6-7.6h17.4c4.2,0,7.6,3.4,7.6,7.6v17.4C264.7,128.9,261.3,132.3,257.1,132.3z"/>
	<path fill="#C4B0C7" stroke="#F0F0F0" stroke-miterlimit="10" d="M289.6,132.3h-17.4c-4.2,0-7.6-3.4-7.6-7.6v-17.4
		c0-4.2,3.4-7.6,7.6-7.6h17.4c4.2,0,7.6,3.4,7.6,7.6v17.4C297.2,128.9,293.8,132.3,289.6,132.3z"/>
	<path fill="#C4B0C7" stroke="#F0F0F0" stroke-miterlimit="10" d="M257.1,99.7h-17.4c-4.2,0-7.6-3.4-7.6-7.6V74.8
		c0-4.2,3.4-7.6,7.6-7.6h17.4c4.2,0,7.6,3.4,7.6,7.6v17.4C264.7,96.3,261.3,99.7,257.1,99.7z"/>
	<path fill="none" stroke="#F0F0F0" stroke-width="1.5" stroke-miterlimit="10" d="M94.3,164.8H77c-4.2,0-7.6-3.4-7.6-7.6v-17.4
		c0-4.2,3.4-7.6,7.6-7.6h17.4c4.2,0,7.6,3.4,7.6,7.6v17.4C101.9,161.4,98.5,164.8,94.3,164.8z"/>
	<path fill="none" stroke="#F0F0F0" stroke-width="1.5" stroke-miterlimit="10" d="M126.9,164.8h-17.4c-4.2,0-7.6-3.4-7.6-7.6v-17.4
		c0-4.2,3.4-7.6,7.6-7.6h17.4c4.2,0,7.6,3.4,7.6,7.6v17.4C134.5,161.4,131.1,164.8,126.9,164.8z"/>
	<path fill="none" stroke="#F0F0F0" stroke-width="1.5" stroke-miterlimit="10" d="M159.4,164.8h-17.4c-4.2,0-7.6-3.4-7.6-7.6v-17.4
		c0-4.2,3.4-7.6,7.6-7.6h17.4c4.2,0,7.6,3.4,7.6,7.6v17.4C167,161.4,163.6,164.8,159.4,164.8z"/>
	<path fill="#C4B0C7" stroke="#F0F0F0" stroke-miterlimit="10" d="M192,164.8h-17.4c-4.2,0-7.6-3.4-7.6-7.6v-17.4
		c0-4.2,3.4-7.6,7.6-7.6H192c4.2,0,7.6,3.4,7.6,7.6v17.4C199.6,161.4,196.2,164.8,192,164.8z"/>
	<path fill="none" stroke="#F0F0F0" stroke-width="1.5" stroke-miterlimit="10" d="M224.5,164.8h-17.4c-4.2,0-7.6-3.4-7.6-7.6v-17.4
		c0-4.2,3.4-7.6,7.6-7.6h17.4c4.2,0,7.6,3.4,7.6,7.6v17.4C232.1,161.4,228.7,164.8,224.5,164.8z"/>
	<path fill="#C4B0C7" stroke="#F0F0F0" stroke-miterlimit="10" d="M257.1,164.8h-17.4c-4.2,0-7.6-3.4-7.6-7.6v-17.4
		c0-4.2,3.4-7.6,7.6-7.6h17.4c4.2,0,7.6,3.4,7.6,7.6v17.4C264.7,161.4,261.3,164.8,257.1,164.8z"/>
	<path fill="#C4B0C7" stroke="#F0F0F0" stroke-miterlimit="10" d="M289.6,164.8h-17.4c-4.2,0-7.6-3.4-7.6-7.6v-17.4
		c0-4.2,3.4-7.6,7.6-7.6h17.4c4.2,0,7.6,3.4,7.6,7.6v17.4C297.2,161.4,293.8,164.8,289.6,164.8z"/>
	<path fill="#C4B0C7" stroke="#F0F0F0" stroke-miterlimit="10" d="M322.2,164.8h-17.4c-4.2,0-7.6-3.4-7.6-7.6v-17.4
		c0-4.2,3.4-7.6,7.6-7.6h17.4c4.2,0,7.6,3.4,7.6,7.6v17.4C329.8,161.4,326.4,164.8,322.2,164.8z"/>
	<path fill="none" stroke="#F0F0F0" stroke-width="1.5" stroke-miterlimit="10" d="M354.7,132.3h-17.4c-4.2,0-7.6-3.4-7.6-7.6v-17.4
		c0-4.2,3.4-7.6,7.6-7.6h17.4c4.2,0,7.6,3.4,7.6,7.6v17.4C362.3,128.9,358.9,132.3,354.7,132.3z"/>
	<path fill="none" stroke="#F0F0F0" stroke-width="1.5" stroke-miterlimit="10" d="M354.7,164.8h-17.4c-4.2,0-7.6-3.4-7.6-7.6v-17.4
		c0-4.2,3.4-7.6,7.6-7.6h17.4c4.2,0,7.6,3.4,7.6,7.6v17.4C362.3,161.4,358.9,164.8,354.7,164.8z"/>
	<path fill="none" stroke="#F0F0F0" stroke-width="1.5" stroke-miterlimit="10" d="M387.3,132.3h-17.4c-4.2,0-7.6-3.4-7.6-7.6v-17.4
		c0-4.2,3.4-7.6,7.6-7.6h17.4c4.2,0,7.6,3.4,7.6,7.6v17.4C394.9,128.9,391.4,132.3,387.3,132.3z"/>
	<path fill="#C4B0C7" stroke="#F0F0F0" stroke-miterlimit="10" d="M387.3,164.8h-17.4c-4.2,0-7.6-3.4-7.6-7.6v-17.4
		c0-4.2,3.4-7.6,7.6-7.6h17.4c4.2,0,7.6,3.4,7.6,7.6v17.4C394.9,161.4,391.4,164.8,387.3,164.8z"/>
	<path fill="none" stroke="#F0F0F0" stroke-width="1.5" stroke-miterlimit="10" d="M387.3,99.7h-17.4c-4.2,0-7.6-3.4-7.6-7.6V74.8
		c0-4.2,3.4-7.6,7.6-7.6h17.4c4.2,0,7.6,3.4,7.6,7.6v17.4C394.9,96.3,391.4,99.7,387.3,99.7z"/>
	<path fill="none" stroke="#F0F0F0" stroke-width="1.5" stroke-miterlimit="10" d="M419.8,99.7h-17.4c-4.2,0-7.6-3.4-7.6-7.6V74.8
		c0-4.2,3.4-7.6,7.6-7.6h17.4c4.2,0,7.6,3.4,7.6,7.6v17.4C427.4,96.3,424,99.7,419.8,99.7z"/>
	<path fill="#C4B0C7" stroke="#F0F0F0" stroke-miterlimit="10" d="M419.8,164.8h-17.4c-4.2,0-7.6-3.4-7.6-7.6v-17.4
		c0-4.2,3.4-7.6,7.6-7.6h17.4c4.2,0,7.6,3.4,7.6,7.6v17.4C427.4,161.4,424,164.8,419.8,164.8z"/>
	<path fill="none" stroke="#F0F0F0" stroke-width="1.5" stroke-miterlimit="10" d="M419.8,67.2h-17.4c-4.2,0-7.6-3.4-7.6-7.6V42.2
		c0-4.2,3.4-7.6,7.6-7.6h17.4c4.2,0,7.6,3.4,7.6,7.6v17.4C427.4,63.8,424,67.2,419.8,67.2z"/>
	<path fill="none" stroke="#F0F0F0" stroke-width="1.5" stroke-miterlimit="10" d="M94.3,197.4H77c-4.2,0-7.6-3.4-7.6-7.6v-17.4
		c0-4.2,3.4-7.6,7.6-7.6h17.4c4.2,0,7.6,3.4,7.6,7.6v17.4C101.9,194,98.5,197.4,94.3,197.4z"/>
	<linearGradient id="SVGID_1_" gradientUnits="userSpaceOnUse" x1="132.2439" y1="195.1709" x2="104.1499" y2="167.0769">
		<stop  offset="0.4895" style="stop-color:#A9BDB0"/>
		<stop  offset="0.4942" style="stop-color:#C2D0C7"/>
		<stop  offset="0.5038" style="stop-color:#FFFFFF"/>
		<stop  offset="0.5121" style="stop-color:#D7C9D9"/>
		<stop  offset="0.5157" style="stop-color:#C4B0C7"/>
	</linearGradient>
	<path fill="url(#SVGID_1_)" stroke="#F0F0F0" stroke-width="1.5" stroke-miterlimit="10" d="M126.9,197.4h-17.4
		c-4.2,0-7.6-3.4-7.6-7.6v-17.4c0-4.2,3.4-7.6,7.6-7.6h17.4c4.2,0,7.6,3.4,7.6,7.6v17.4C134.5,194,131.1,197.4,126.9,197.4z"/>
	<path fill="none" stroke="#F0F0F0" stroke-width="1.5" stroke-miterlimit="10" d="M159.4,197.4h-17.4c-4.2,0-7.6-3.4-7.6-7.6v-17.4
		c0-4.2,3.4-7.6,7.6-7.6h17.4c4.2,0,7.6,3.4,7.6,7.6v17.4C167,194,163.6,197.4,159.4,197.4z"/>
	<path fill="#C4B0C7" stroke="#F0F0F0" stroke-miterlimit="10" d="M192,197.4h-17.4c-4.2,0-7.6-3.4-7.6-7.6v-17.4
		c0-4.2,3.4-7.6,7.6-7.6H192c4.2,0,7.6,3.4,7.6,7.6v17.4C199.6,194,196.2,197.4,192,197.4z"/>
	<linearGradient id="SVGID_2_" gradientUnits="userSpaceOnUse" x1="229.8906" y1="195.1709" x2="201.7966" y2="167.0769">
		<stop  offset="0.4895" style="stop-color:#A9BDB0"/>
		<stop  offset="0.4942" style="stop-color:#C2D0C7"/>
		<stop  offset="0.5038" style="stop-color:#FFFFFF"/>
		<stop  offset="0.5121" style="stop-color:#D7C9D9"/>
		<stop  offset="0.5157" style="stop-color:#C4B0C7"/>
	</linearGradient>
	<path fill="url(#SVGID_2_)" stroke="#F0F0F0" stroke-width="1.5" stroke-miterlimit="10" d="M224.5,197.4h-17.4
		c-4.2,0-7.6-3.4-7.6-7.6v-17.4c0-4.2,3.4-7.6,7.6-7.6h17.4c4.2,0,7.6,3.4,7.6,7.6v17.4C232.1,194,228.7,197.4,224.5,197.4z"/>
	<path fill="#C4B0C7" stroke="#F0F0F0" stroke-miterlimit="10" d="M257.1,197.4h-17.4c-4.2,0-7.6-3.4-7.6-7.6v-17.4
		c0-4.2,3.4-7.6,7.6-7.6h17.4c4.2,0,7.6,3.4,7.6,7.6v17.4C264.7,194,261.3,197.4,257.1,197.4z"/>
	<path fill="none" stroke="#F0F0F0" stroke-width="1.5" stroke-miterlimit="10" d="M289.6,197.4h-17.4c-4.2,0-7.6-3.4-7.6-7.6v-17.4
		c0-4.2,3.4-7.6,7.6-7.6h17.4c4.2,0,7.6,3.4,7.6,7.6v17.4C297.2,194,293.8,197.4,289.6,197.4z"/>
	<path fill="#C4B0C7" stroke="#F0F0F0" stroke-miterlimit="10" d="M322.2,197.4h-17.4c-4.2,0-7.6-3.4-7.6-7.6v-17.4
		c0-4.2,3.4-7.6,7.6-7.6h17.4c4.2,0,7.6,3.4,7.6,7.6v17.4C329.8,194,326.4,197.4,322.2,197.4z"/>
	<path fill="#C4B0C7" stroke="#F0F0F0" stroke-miterlimit="10" d="M354.7,197.4h-17.4c-4.2,0-7.6-3.4-7.6-7.6v-17.4
		c0-4.2,3.4-7.6,7.6-7.6h17.4c4.2,0,7.6,3.4,7.6,7.6v17.4C362.3,194,358.9,197.4,354.7,197.4z"/>
	<path fill="none" stroke="#F0F0F0" stroke-width="1.5" stroke-miterlimit="10" d="M387.3,197.4h-17.4c-4.2,0-7.6-3.4-7.6-7.6v-17.4
		c0-4.2,3.4-7.6,7.6-7.6h17.4c4.2,0,7.6,3.4,7.6,7.6v17.4C394.9,194,391.5,197.4,387.3,197.4z"/>
	<path fill="#C4B0C7" stroke="#F0F0F0" stroke-miterlimit="10" d="M126.9,229.7h-17.4c-4.2,0-7.6-3.4-7.6-7.6v-17.4
		c0-4.2,3.4-7.6,7.6-7.6h17.4c4.2,0,7.6,3.4,7.6,7.6v17.4C134.5,226.3,131.1,229.7,126.9,229.7z"/>
	<path fill="none" stroke="#F0F0F0" stroke-width="1.5" stroke-miterlimit="10" d="M159.4,229.7h-17.4c-4.2,0-7.6-3.4-7.6-7.6v-17.4
		c0-4.2,3.4-7.6,7.6-7.6h17.4c4.2,0,7.6,3.4,7.6,7.6v17.4C167,226.3,163.6,229.7,159.4,229.7z"/>
	<path fill="none" stroke="#F0F0F0" stroke-width="1.5" stroke-miterlimit="10" d="M192,229.7h-17.4c-4.2,0-7.6-3.4-7.6-7.6v-17.4
		c0-4.2,3.4-7.6,7.6-7.6H192c4.2,0,7.6,3.4,7.6,7.6v17.4C199.6,226.3,196.2,229.7,192,229.7z"/>
	<path fill="#C4B0C7" stroke="#F0F0F0" stroke-miterlimit="10" d="M224.5,229.7h-17.4c-4.2,0-7.6-3.4-7.6-7.6v-17.4
		c0-4.2,3.4-7.6,7.6-7.6h17.4c4.2,0,7.6,3.4,7.6,7.6v17.4C232.1,226.3,228.7,229.7,224.5,229.7z"/>
	<linearGradient id="SVGID_3_" gradientUnits="userSpaceOnUse" x1="262.4388" y1="227.4458" x2="234.3448" y2="199.3518">
		<stop  offset="0.4895" style="stop-color:#A9BDB0"/>
		<stop  offset="0.4942" style="stop-color:#C2D0C7"/>
		<stop  offset="0.5038" style="stop-color:#FFFFFF"/>
		<stop  offset="0.5121" style="stop-color:#D7C9D9"/>
		<stop  offset="0.5157" style="stop-color:#C4B0C7"/>
	</linearGradient>
	<path fill="url(#SVGID_3_)" stroke="#F0F0F0" stroke-width="1.5" stroke-miterlimit="10" d="M257.1,229.7h-17.4
		c-4.2,0-7.6-3.4-7.6-7.6v-17.4c0-4.2,3.4-7.6,7.6-7.6h17.4c4.2,0,7.6,3.4,7.6,7.6v17.4C264.7,226.3,261.3,229.7,257.1,229.7z"/>
	<path fill="#C4B0C7" stroke="#F0F0F0" stroke-miterlimit="10" d="M289.6,229.7h-17.4c-4.2,0-7.6-3.4-7.6-7.6v-17.4
		c0-4.2,3.4-7.6,7.6-7.6h17.4c4.2,0,7.6,3.4,7.6,7.6v17.4C297.2,226.3,293.8,229.7,289.6,229.7z"/>
	<path fill="#C4B0C7" stroke="#F0F0F0" stroke-miterlimit="10" d="M322.2,229.7h-17.4c-4.2,0-7.6-3.4-7.6-7.6v-17.4
		c0-4.2,3.4-7.6,7.6-7.6h17.4c4.2,0,7.6,3.4,7.6,7.6v17.4C329.8,226.3,326.4,229.7,322.2,229.7z"/>
	<path fill="none" stroke="#F0F0F0" stroke-width="1.5" stroke-miterlimit="10" d="M354.7,229.7h-17.4c-4.2,0-7.6-3.4-7.6-7.6v-17.4
		c0-4.2,3.4-7.6,7.6-7.6h17.4c4.2,0,7.6,3.4,7.6,7.6v17.4C362.3,226.3,358.9,229.7,354.7,229.7z"/>
	<path fill="#C4B0C7" stroke="#F0F0F0" stroke-miterlimit="10" d="M192,262.2h-17.4c-4.2,0-7.6-3.4-7.6-7.6v-17.4
		c0-4.2,3.4-7.6,7.6-7.6H192c4.2,0,7.6,3.4,7.6,7.6v17.4C199.6,258.8,196.2,262.2,192,262.2z"/>
	<path fill="#C4B0C7" stroke="#F0F0F0" stroke-miterlimit="10" d="M224.5,262.2h-17.4c-4.2,0-7.6-3.4-7.6-7.6v-17.4
		c0-4.2,3.4-7.6,7.6-7.6h17.4c4.2,0,7.6,3.4,7.6,7.6v17.4C232.1,258.8,228.7,262.2,224.5,262.2z"/>
	<path fill="#C4B0C7" stroke="#F0F0F0" stroke-miterlimit="10" d="M257.1,262.2h-17.4c-4.2,0-7.6-3.4-7.6-7.6v-17.4
		c0-4.2,3.4-7.6,7.6-7.6h17.4c4.2,0,7.6,3.4,7.6,7.6v17.4C264.7,258.8,261.3,262.2,257.1,262.2z"/>
	<path fill="#C4B0C7" stroke="#F0F0F0" stroke-miterlimit="10" d="M289.6,262.2h-17.4c-4.2,0-7.6-3.4-7.6-7.6v-17.4
		c0-4.2,3.4-7.6,7.6-7.6h17.4c4.2,0,7.6,3.4,7.6,7.6v17.4C297.2,258.8,293.8,262.2,289.6,262.2z"/>
	<path fill="none" stroke="#F0F0F0" stroke-width="1.5" stroke-miterlimit="10" d="M322.2,262.2h-17.4c-4.2,0-7.6-3.4-7.6-7.6v-17.4
		c0-4.2,3.4-7.6,7.6-7.6h17.4c4.2,0,7.6,3.4,7.6,7.6v17.4C329.8,258.8,326.4,262.2,322.2,262.2z"/>
	<path fill="none" stroke="#000000" stroke-miterlimit="10" d="M192,294.8h-17.4c-4.2,0-7.6-3.4-7.6-7.6v-17.4
		c0-4.2,3.4-7.6,7.6-7.6H192c4.2,0,7.6,3.4,7.6,7.6v17.4C199.6,291.4,196.2,294.8,192,294.8z"/>
	<path fill="#C4B0C7" stroke="#F0F0F0" stroke-miterlimit="10" d="M354.7,294.8h-17.4c-4.2,0-7.6-3.4-7.6-7.6v-17.4
		c0-4.2,3.4-7.6,7.6-7.6h17.4c4.2,0,7.6,3.4,7.6,7.6v17.4C362.3,291.4,358.9,294.8,354.7,294.8z"/>
	<path fill="none" stroke="#F0F0F0" stroke-width="1.5" stroke-miterlimit="10" d="M61.8,294.8H44.4c-4.2,0-7.6-3.4-7.6-7.6v-17.4
		c0-4.2,3.4-7.6,7.6-7.6h17.4c4.2,0,7.6,3.4,7.6,7.6v17.4C69.4,291.4,66,294.8,61.8,294.8z"/>
	<path fill="none" stroke="#F0F0F0" stroke-width="1.5" stroke-miterlimit="10" d="M94.3,294.8H77c-4.2,0-7.6-3.4-7.6-7.6v-17.4
		c0-4.2,3.4-7.6,7.6-7.6h17.4c4.2,0,7.6,3.4,7.6,7.6v17.4C101.9,291.4,98.5,294.8,94.3,294.8z"/>
	<g>
		<rect x="162.2" y="302.8" fill="none" width="26.3" height="45.7"/>
	</g>
	<g>
		<rect x="155.7" y="300.9" fill="none" width="28.6" height="15.3"/>
	</g>
</g>
<g id="state_names">
	<text transform="matrix(1 0 0 1 403.0002 55.4244)" font-family="'FranklinGothicLightSSiLight'" font-size="14px">ME</text>
	<text transform="matrix(1 0 0 1 403.0002 87.7657)" font-family="'FranklinGothicLightSSiLight'" font-size="14px">NH</text>
	<text transform="matrix(1 0 0 1 372.0002 87.7662)" font-family="'FranklinGothicLightSSiLight'" font-size="14px">VT</text>
	<text transform="matrix(1 0 0 1 370.0002 119.933)" font-family="'FranklinGothicLightSSiLight'" font-size="14px">MA</text>
	<text transform="matrix(1 0 0 1 371.0002 152.4328)" font-family="'FranklinGothicLightSSiLight'" font-size="14px">CT</text>
	<text transform="matrix(1 0 0 1 406.0002 152.4327)" font-family="'FranklinGothicLightSSiLight'" font-size="14px">RI</text>
	<text transform="matrix(1 0 0 1 371.0002 185.0994)" font-family="'FranklinGothicLightSSiLight'" font-size="14px">DE</text>
	<text transform="matrix(1 0 0 1 339.0002 119.9329)" font-family="'FranklinGothicLightSSiLight'" font-size="14px">NY</text>
	<text transform="matrix(1 0 0 1 339.0002 152.4328)" font-family="'FranklinGothicLightSSiLight'" font-size="14px">NJ</text>
	<text transform="matrix(1 0 0 1 336.0002 185.0997)" font-family="'FranklinGothicLightSSiLight'" font-size="14px">MD</text>
	<text transform="matrix(1 0 0 1 338.0002 216.767)" font-family="'FranklinGothicLightSSiLight'" font-size="14px">DC</text>
	<text transform="matrix(1 0 0 1 341.0002 282.766)" font-family="'FranklinGothicLightSSiLight'" font-size="14px">FL</text>
	<text transform="matrix(1 0 0 1 306.0002 250.1003)" font-family="'FranklinGothicLightSSiLight'" font-size="14px">GA</text>
	<text transform="matrix(1 0 0 1 305.0002 216.7669)" font-family="'FranklinGothicLightSSiLight'" font-size="14px">SC</text>
	<text transform="matrix(1 0 0 1 306.0004 185.0992)" font-family="'FranklinGothicLightSSiLight'" font-size="14px">VA</text>
	<text transform="matrix(1 0 0 1 306.0005 152.433)" font-family="'FranklinGothicLightSSiLight'" font-size="14px">PA</text>
	<text transform="matrix(1 0 0 1 272.667 119.9328)" font-family="'FranklinGothicLightSSiLight'" font-size="14px">MI</text>
	<text transform="matrix(1 0 0 1 271.6668 152.433)" font-family="'FranklinGothicLightSSiLight'" font-size="14px">OH</text>
	<text transform="matrix(1 0 0 1 271.6669 185.0995)" font-family="'FranklinGothicLightSSiLight'" font-size="14px">WV</text>
	<text transform="matrix(1 0 0 1 271.6667 216.7672)" font-family="'FranklinGothicLightSSiLight'" font-size="14px">NC</text>
	<text transform="matrix(1 0 0 1 273.6667 250.0996)" font-family="'FranklinGothicLightSSiLight'" font-size="14px">AL</text>
	<text transform="matrix(1 0 0 1 239.0002 250.0998)" font-family="'FranklinGothicLightSSiLight'" font-size="14px">MS</text>
	<text transform="matrix(1 0 0 1 240.0002 216.7674)" font-family="'FranklinGothicLightSSiLight'" font-size="14px">TN</text>
	<text transform="matrix(1 0 0 1 240.0002 185.0992)" font-family="'FranklinGothicLightSSiLight'" font-size="14px">KY</text>
	<text transform="matrix(1 0 0 1 242.0002 152.4329)" font-family="'FranklinGothicLightSSiLight'" font-size="14px">IN</text>
	<text transform="matrix(1 0 0 1 242.0002 119.9328)" font-family="'FranklinGothicLightSSiLight'" font-size="14px">IL</text>
	<text transform="matrix(1 0 0 1 240.0002 87.766)" font-family="'FranklinGothicLightSSiLight'" font-size="14px">WI</text>
	<text transform="matrix(1 0 0 1 208.3335 250.0997)" font-family="'FranklinGothicLightSSiLight'" font-size="14px">LA</text>
	<text transform="matrix(1 0 0 1 208.3335 216.7673)" font-family="'FranklinGothicLightSSiLight'" font-size="14px">AR</text>
	<text transform="matrix(1 0 0 1 205.3335 185.0994)" font-family="'FranklinGothicLightSSiLight'" font-size="14px">MO</text>
	<text transform="matrix(1 0 0 1 209.3335 152.4328)" font-family="'FranklinGothicLightSSiLight'" font-size="14px">IA</text>
	<text transform="matrix(1 0 0 1 206.3335 119.9327)" font-family="'FranklinGothicLightSSiLight'" font-size="14px">MN</text>
	<text transform="matrix(1 0 0 1 174.3336 250.0998)" font-family="'FranklinGothicLightSSiLight'" font-size="14px">OK</text>
	<text transform="matrix(1 0 0 1 175.3336 216.7664)" font-family="'FranklinGothicLightSSiLight'" font-size="14px">KS</text>
	<text transform="matrix(1 0 0 1 175.3336 185.0996)" font-family="'FranklinGothicLightSSiLight'" font-size="14px">NE</text>
	<text transform="matrix(1 0 0 1 174.3336 152.433)" font-family="'FranklinGothicLightSSiLight'" font-size="14px">SD</text>
	<text transform="matrix(1 0 0 1 174.3336 119.9328)" font-family="'FranklinGothicLightSSiLight'" font-size="14px">ND</text>
	<text transform="matrix(1 0 0 1 141.3336 216.7671)" font-family="'FranklinGothicLightSSiLight'" font-size="14px">NM</text>
	<text transform="matrix(1 0 0 1 142.3336 185.0993)" font-family="'FranklinGothicLightSSiLight'" font-size="14px">CO</text>
	<text transform="matrix(1 0 0 1 142.3336 152.4331)" font-family="'FranklinGothicLightSSiLight'" font-size="14px">WY</text>
	<text transform="matrix(1 0 0 1 142.3336 119.933)" font-family="'FranklinGothicLightSSiLight'" font-size="14px">MT</text>
	<text transform="matrix(1 0 0 1 109.3336 216.7674)" font-family="'FranklinGothicLightSSiLight'" font-size="14px">AZ</text>
	<text transform="matrix(1 0 0 1 110.3336 185.0993)" font-family="'FranklinGothicLightSSiLight'" font-size="14px">UT</text>
	<text transform="matrix(1 0 0 1 110.3336 152.4329)" font-family="'FranklinGothicLightSSiLight'" font-size="14px">NV</text>
	<text transform="matrix(1 0 0 1 111.3336 119.9328)" font-family="'FranklinGothicLightSSiLight'" font-size="14px">ID</text>
	<text transform="matrix(1 0 0 1 77.3336 185.0995)" font-family="'FranklinGothicLightSSiLight'" font-size="14px">CA</text>
	<text transform="matrix(1 0 0 1 77.3336 152.4331)" font-family="'FranklinGothicLightSSiLight'" font-size="14px">OR</text>
	<text transform="matrix(1 0 0 1 77.3336 119.933)" font-family="'FranklinGothicLightSSiLight'" font-size="14px">WA</text>
	<text transform="matrix(1 0 0 1 45.8336 282.7659)" font-family="'FranklinGothicLightSSiLight'" font-size="14px">HI</text>
	<text transform="matrix(1 0 0 1 77.8336 282.766)" font-family="'FranklinGothicLightSSiLight'" font-size="14px">AK</text>
	
		<text transform="matrix(1 0 0 1 175.3334 282.7659)" stroke="#231F20" stroke-miterlimit="10" font-family="'FranklinGothicLightSSiLight'" font-size="14px">TX</text>
</g>
<g id="text">
	<rect x="200.5" y="306.8" fill="none" width="226" height="73"/>
	<text transform="matrix(1 0 0 1 200.4901 315.286)"><tspan x="0" y="0" font-family="'MyriadPro-Regular'" font-size="12px">The Supreme Court on June 27 struck down </tspan><tspan x="0" y="14.4" font-family="'MyriadPro-Regular'" font-size="12px">portions of a TX law that required doctors to </tspan><tspan x="0" y="28.8" font-family="'MyriadPro-Regular'" font-size="12px">have admitting privileges at a nearby  </tspan><tspan x="0" y="43.2" font-family="'MyriadPro-Regular'" font-size="12px">hospital and clinics to meet ambulatory </tspan><tspan x="0" y="57.6" font-family="'MyriadPro-Regular'" font-size="12px">surgical center standards.</tspan></text>
</g>
<g id="Arrows">
	<g>
		<g>
			<g>
				<polygon fill="#231F20" points="170.3,308.4 169.4,300.9 163.7,305.9 				"/>
			</g>
		</g>
		<path fill="none" stroke="#231F20" stroke-width="0.5" stroke-miterlimit="10" d="M199.6,336.4c-24.1,4.3-34.7-15.6-32.4-31.1"/>
	</g>
</g>
</svg>
